<svg xmlns="http://www.w3.org/2000/svg" xmlns:xlink="http://www.w3.org/1999/xlink" width="300" zoomAndPan="magnify" viewBox="0 0 224.87999 225" height="300" preserveAspectRatio="xMidYMid meet" version="1.0"><defs><g/></defs><g fill="#000000" fill-opacity="1"><g transform="translate(62.146518, 98.507473)"><g><path d="M 23.25 -18.703125 L 23.25 -29.96875 L 29.15625 -29.96875 L 29.15625 0 L 23.25 0 L 23.25 -13.65625 L 9.8125 -13.65625 L 9.8125 0 L 3.890625 0 L 3.890625 -29.96875 L 9.8125 -29.96875 L 9.8125 -18.703125 Z M 23.25 -18.703125 "/></g></g><g transform="translate(95.207974, 98.507473)"><g><path d="M 22.34375 -10.03125 L 7.8125 -10.03125 C 7.976562 -8.0625 8.535156 -6.628906 9.484375 -5.734375 C 10.441406 -4.835938 11.75 -4.390625 13.40625 -4.390625 C 14.707031 -4.390625 15.757812 -4.628906 16.5625 -5.109375 C 17.375 -5.597656 18.023438 -6.332031 18.515625 -7.3125 L 18.9375 -7.3125 L 22.71875 -4.90625 C 21.976562 -3.3125 20.863281 -2.019531 19.375 -1.03125 C 17.882812 -0.0507812 15.894531 0.4375 13.40625 0.4375 C 11.070312 0.4375 9.050781 -0.00390625 7.34375 -0.890625 C 5.644531 -1.785156 4.332031 -3.109375 3.40625 -4.859375 C 2.488281 -6.617188 2.03125 -8.765625 2.03125 -11.296875 C 2.03125 -13.867188 2.515625 -16.035156 3.484375 -17.796875 C 4.453125 -19.554688 5.765625 -20.867188 7.421875 -21.734375 C 9.078125 -22.609375 10.9375 -23.046875 13 -23.046875 C 16.195312 -23.046875 18.644531 -22.195312 20.34375 -20.5 C 22.050781 -18.800781 22.90625 -16.3125 22.90625 -13.03125 C 22.90625 -11.84375 22.863281 -10.921875 22.78125 -10.265625 Z M 17.46875 -13.6875 C 17.414062 -15.414062 17.015625 -16.671875 16.265625 -17.453125 C 15.523438 -18.242188 14.4375 -18.640625 13 -18.640625 C 10.125 -18.640625 8.4375 -16.988281 7.9375 -13.6875 Z M 17.46875 -13.6875 "/></g></g><g transform="translate(119.783725, 98.507473)"><g><path d="M 3.265625 0 L 3.265625 -22.609375 L 8.78125 -22.609375 L 8.78125 -19.25 L 9.203125 -19.171875 C 9.753906 -20.421875 10.472656 -21.335938 11.359375 -21.921875 C 12.242188 -22.515625 13.320312 -22.8125 14.59375 -22.8125 C 15.875 -22.8125 16.851562 -22.59375 17.53125 -22.15625 L 16.5625 -17.265625 L 16.140625 -17.171875 C 15.765625 -17.328125 15.40625 -17.4375 15.0625 -17.5 C 14.726562 -17.570312 14.3125 -17.609375 13.8125 -17.609375 C 12.226562 -17.609375 11.019531 -17.050781 10.1875 -15.9375 C 9.351562 -14.820312 8.9375 -13.035156 8.9375 -10.578125 L 8.9375 0 Z M 3.265625 0 "/></g></g><g transform="translate(137.51352, 98.507473)"><g><path d="M 6.09375 -25.3125 C 5.0625 -25.3125 4.222656 -25.625 3.578125 -26.25 C 2.941406 -26.875 2.625 -27.675781 2.625 -28.65625 C 2.625 -29.625 2.941406 -30.421875 3.578125 -31.046875 C 4.222656 -31.671875 5.0625 -31.984375 6.09375 -31.984375 C 6.769531 -31.984375 7.375 -31.835938 7.90625 -31.546875 C 8.445312 -31.265625 8.863281 -30.875 9.15625 -30.375 C 9.445312 -29.875 9.59375 -29.300781 9.59375 -28.65625 C 9.59375 -28.019531 9.445312 -27.445312 9.15625 -26.9375 C 8.863281 -26.425781 8.445312 -26.023438 7.90625 -25.734375 C 7.375 -25.453125 6.769531 -25.3125 6.09375 -25.3125 Z M 3.265625 0 L 3.265625 -22.609375 L 8.9375 -22.609375 L 8.9375 0 Z M 3.265625 0 "/></g></g><g transform="translate(149.688662, 98.507473)"><g><path d="M 9.390625 0.4375 C 7.347656 0.4375 5.789062 -0.113281 4.71875 -1.21875 C 3.644531 -2.320312 3.109375 -3.992188 3.109375 -6.234375 L 3.109375 -31.6875 L 8.796875 -31.6875 L 8.796875 -6.453125 C 8.796875 -5.078125 9.367188 -4.390625 10.515625 -4.390625 C 10.847656 -4.390625 11.195312 -4.441406 11.5625 -4.546875 L 11.84375 -4.46875 L 12.359375 -0.109375 C 12.046875 0.0546875 11.628906 0.1875 11.109375 0.28125 C 10.585938 0.382812 10.015625 0.4375 9.390625 0.4375 Z M 9.390625 0.4375 "/></g></g></g><g fill="#000000" fill-opacity="1"><g transform="translate(25.525439, 154.4776)"><g><path d="M 14.5625 0.4375 C 12.050781 0.4375 9.882812 -0.132812 8.0625 -1.28125 C 6.238281 -2.425781 4.832031 -4.148438 3.84375 -6.453125 C 2.851562 -8.753906 2.359375 -11.597656 2.359375 -14.984375 C 2.359375 -18.398438 2.953125 -21.257812 4.140625 -23.5625 C 5.328125 -25.863281 6.976562 -27.578125 9.09375 -28.703125 C 11.207031 -29.835938 13.65625 -30.40625 16.4375 -30.40625 C 19.3125 -30.40625 21.757812 -29.867188 23.78125 -28.796875 C 25.800781 -27.734375 27.222656 -26.148438 28.046875 -24.046875 L 23.71875 -21.421875 L 23.203125 -21.4375 C 22.585938 -22.78125 21.722656 -23.757812 20.609375 -24.375 C 19.492188 -24.988281 18.101562 -25.296875 16.4375 -25.296875 C 13.851562 -25.296875 11.878906 -24.476562 10.515625 -22.84375 C 9.148438 -21.207031 8.46875 -18.585938 8.46875 -14.984375 C 8.46875 -11.359375 9.101562 -8.726562 10.375 -7.09375 C 11.65625 -5.457031 13.546875 -4.640625 16.046875 -4.640625 C 18.210938 -4.640625 19.804688 -5.125 20.828125 -6.09375 C 21.847656 -7.0625 22.359375 -8.507812 22.359375 -10.4375 L 22.359375 -11.71875 L 15.265625 -11.71875 L 15.265625 -16.546875 L 28.25 -16.546875 L 28.25 0 L 22.59375 0 L 22.59375 -4.015625 L 22.15625 -4.078125 C 21.539062 -2.640625 20.609375 -1.523438 19.359375 -0.734375 C 18.109375 0.046875 16.507812 0.4375 14.5625 0.4375 Z M 14.5625 0.4375 "/></g></g><g transform="translate(56.78317, 154.4776)"><g><path d="M 8.8125 0.4375 C 7.363281 0.4375 6.101562 0.171875 5.03125 -0.359375 C 3.96875 -0.898438 3.148438 -1.6875 2.578125 -2.71875 C 2.003906 -3.75 1.71875 -4.988281 1.71875 -6.4375 C 1.71875 -7.78125 2.003906 -8.90625 2.578125 -9.8125 C 3.148438 -10.71875 4.035156 -11.460938 5.234375 -12.046875 C 6.441406 -12.628906 8.019531 -13.078125 9.96875 -13.390625 C 11.320312 -13.609375 12.347656 -13.847656 13.046875 -14.109375 C 13.753906 -14.367188 14.226562 -14.660156 14.46875 -14.984375 C 14.71875 -15.316406 14.84375 -15.734375 14.84375 -16.234375 C 14.84375 -16.960938 14.585938 -17.515625 14.078125 -17.890625 C 13.578125 -18.273438 12.738281 -18.46875 11.5625 -18.46875 C 10.300781 -18.46875 9.101562 -18.1875 7.96875 -17.625 C 6.832031 -17.070312 5.847656 -16.335938 5.015625 -15.421875 L 4.609375 -15.421875 L 2.234375 -19 C 3.378906 -20.269531 4.78125 -21.257812 6.4375 -21.96875 C 8.09375 -22.6875 9.894531 -23.046875 11.84375 -23.046875 C 14.84375 -23.046875 17.007812 -22.410156 18.34375 -21.140625 C 19.6875 -19.867188 20.359375 -18.0625 20.359375 -15.71875 L 20.359375 -5.90625 C 20.359375 -4.894531 20.800781 -4.390625 21.6875 -4.390625 C 22.03125 -4.390625 22.363281 -4.453125 22.6875 -4.578125 L 22.984375 -4.484375 L 23.390625 -0.53125 C 23.078125 -0.320312 22.640625 -0.15625 22.078125 -0.03125 C 21.515625 0.09375 20.898438 0.15625 20.234375 0.15625 C 18.878906 0.15625 17.820312 -0.0976562 17.0625 -0.609375 C 16.300781 -1.128906 15.757812 -1.941406 15.4375 -3.046875 L 15 -3.09375 C 13.894531 -0.738281 11.832031 0.4375 8.8125 0.4375 Z M 10.625 -3.8125 C 11.9375 -3.8125 12.984375 -4.25 13.765625 -5.125 C 14.546875 -6.007812 14.9375 -7.238281 14.9375 -8.8125 L 14.9375 -11.109375 L 14.5625 -11.1875 C 14.21875 -10.914062 13.765625 -10.6875 13.203125 -10.5 C 12.648438 -10.320312 11.859375 -10.144531 10.828125 -9.96875 C 9.597656 -9.757812 8.710938 -9.40625 8.171875 -8.90625 C 7.628906 -8.40625 7.359375 -7.695312 7.359375 -6.78125 C 7.359375 -5.8125 7.644531 -5.070312 8.21875 -4.5625 C 8.789062 -4.0625 9.59375 -3.8125 10.625 -3.8125 Z M 10.625 -3.8125 "/></g></g><g transform="translate(80.621033, 154.4776)"><g><path d="M 3.265625 0 L 3.265625 -22.609375 L 8.71875 -22.609375 L 8.71875 -19.296875 L 9.140625 -19.1875 C 10.546875 -21.757812 12.828125 -23.046875 15.984375 -23.046875 C 18.597656 -23.046875 20.515625 -22.332031 21.734375 -20.90625 C 22.960938 -19.488281 23.578125 -17.421875 23.578125 -14.703125 L 23.578125 0 L 17.890625 0 L 17.890625 -14 C 17.890625 -15.5 17.585938 -16.582031 16.984375 -17.25 C 16.390625 -17.914062 15.429688 -18.25 14.109375 -18.25 C 12.484375 -18.25 11.210938 -17.722656 10.296875 -16.671875 C 9.390625 -15.617188 8.9375 -13.960938 8.9375 -11.703125 L 8.9375 0 Z M 3.265625 0 "/></g></g><g transform="translate(107.102993, 154.4776)"><g><path d="M 15.59375 -5.390625 L 17.078125 -1.1875 C 16.460938 -0.6875 15.6875 -0.289062 14.75 0 C 13.820312 0.289062 12.773438 0.4375 11.609375 0.4375 C 9.160156 0.4375 7.300781 -0.226562 6.03125 -1.5625 C 4.757812 -2.894531 4.125 -4.832031 4.125 -7.375 L 4.125 -18.125 L 0.671875 -18.125 L 0.671875 -22.625 L 4.125 -22.625 L 4.125 -27.046875 L 9.796875 -27.96875 L 9.796875 -22.625 L 16.21875 -22.625 L 16.21875 -18.125 L 9.796875 -18.125 L 9.796875 -7.796875 C 9.796875 -6.671875 10.023438 -5.851562 10.484375 -5.34375 C 10.953125 -4.832031 11.632812 -4.578125 12.53125 -4.578125 C 13.539062 -4.578125 14.421875 -4.847656 15.171875 -5.390625 Z M 15.59375 -5.390625 "/></g></g><g transform="translate(124.668813, 154.4776)"><g><path d="M 22.34375 -10.03125 L 7.8125 -10.03125 C 7.976562 -8.0625 8.535156 -6.628906 9.484375 -5.734375 C 10.441406 -4.835938 11.75 -4.390625 13.40625 -4.390625 C 14.707031 -4.390625 15.757812 -4.628906 16.5625 -5.109375 C 17.375 -5.597656 18.023438 -6.332031 18.515625 -7.3125 L 18.9375 -7.3125 L 22.71875 -4.90625 C 21.976562 -3.3125 20.863281 -2.019531 19.375 -1.03125 C 17.882812 -0.0507812 15.894531 0.4375 13.40625 0.4375 C 11.070312 0.4375 9.050781 -0.00390625 7.34375 -0.890625 C 5.644531 -1.785156 4.332031 -3.109375 3.40625 -4.859375 C 2.488281 -6.617188 2.03125 -8.765625 2.03125 -11.296875 C 2.03125 -13.867188 2.515625 -16.035156 3.484375 -17.796875 C 4.453125 -19.554688 5.765625 -20.867188 7.421875 -21.734375 C 9.078125 -22.609375 10.9375 -23.046875 13 -23.046875 C 16.195312 -23.046875 18.644531 -22.195312 20.34375 -20.5 C 22.050781 -18.800781 22.90625 -16.3125 22.90625 -13.03125 C 22.90625 -11.84375 22.863281 -10.921875 22.78125 -10.265625 Z M 17.46875 -13.6875 C 17.414062 -15.414062 17.015625 -16.671875 16.265625 -17.453125 C 15.523438 -18.242188 14.4375 -18.640625 13 -18.640625 C 10.125 -18.640625 8.4375 -16.988281 7.9375 -13.6875 Z M 17.46875 -13.6875 "/></g></g><g transform="translate(149.244563, 154.4776)"><g><path d="M 3.265625 0 L 3.265625 -22.609375 L 8.71875 -22.609375 L 8.71875 -19.296875 L 9.140625 -19.1875 C 10.546875 -21.757812 12.828125 -23.046875 15.984375 -23.046875 C 18.597656 -23.046875 20.515625 -22.332031 21.734375 -20.90625 C 22.960938 -19.488281 23.578125 -17.421875 23.578125 -14.703125 L 23.578125 0 L 17.890625 0 L 17.890625 -14 C 17.890625 -15.5 17.585938 -16.582031 16.984375 -17.25 C 16.390625 -17.914062 15.429688 -18.25 14.109375 -18.25 C 12.484375 -18.25 11.210938 -17.722656 10.296875 -16.671875 C 9.390625 -15.617188 8.9375 -13.960938 8.9375 -11.703125 L 8.9375 0 Z M 3.265625 0 "/></g></g><g transform="translate(175.726523, 154.4776)"><g><path d="M 11.71875 9.59375 C 7.988281 9.59375 5.234375 9.046875 3.453125 7.953125 C 1.679688 6.859375 0.796875 5.332031 0.796875 3.375 C 0.796875 2.1875 1.175781 1.210938 1.9375 0.453125 C 2.695312 -0.296875 3.785156 -0.800781 5.203125 -1.0625 L 5.203125 -1.5 C 4.441406 -1.957031 3.890625 -2.46875 3.546875 -3.03125 C 3.210938 -3.601562 3.046875 -4.265625 3.046875 -5.015625 C 3.046875 -6.835938 4.226562 -8.0625 6.59375 -8.6875 L 6.59375 -9.125 C 5.382812 -9.820312 4.472656 -10.6875 3.859375 -11.71875 C 3.242188 -12.75 2.9375 -13.992188 2.9375 -15.453125 C 2.9375 -16.960938 3.28125 -18.285156 3.96875 -19.421875 C 4.65625 -20.566406 5.664062 -21.457031 7 -22.09375 C 8.332031 -22.726562 9.925781 -23.046875 11.78125 -23.046875 C 13.664062 -23.046875 15.171875 -22.71875 16.296875 -22.0625 C 16.992188 -23.070312 17.394531 -24.238281 17.5 -25.5625 L 17.9375 -25.828125 L 22.015625 -24.828125 C 21.890625 -23.742188 21.570312 -22.835938 21.0625 -22.109375 C 20.5625 -21.378906 19.78125 -20.726562 18.71875 -20.15625 L 18.71875 -19.703125 C 19.988281 -18.578125 20.625 -17.007812 20.625 -15 C 20.625 -13.613281 20.273438 -12.363281 19.578125 -11.25 C 18.878906 -10.144531 17.863281 -9.269531 16.53125 -8.625 C 15.195312 -7.988281 13.613281 -7.671875 11.78125 -7.671875 L 10.921875 -7.6875 C 10.378906 -7.71875 10 -7.734375 9.78125 -7.734375 C 9.257812 -7.734375 8.851562 -7.59375 8.5625 -7.3125 C 8.269531 -7.03125 8.125 -6.671875 8.125 -6.234375 C 8.125 -5.753906 8.3125 -5.378906 8.6875 -5.109375 C 9.070312 -4.847656 9.632812 -4.703125 10.375 -4.671875 L 15.4375 -4.484375 C 20.4375 -4.335938 22.9375 -2.1875 22.9375 1.96875 C 22.9375 3.425781 22.5625 4.722656 21.8125 5.859375 C 21.070312 7.003906 19.867188 7.910156 18.203125 8.578125 C 16.535156 9.253906 14.375 9.59375 11.71875 9.59375 Z M 11.78125 -11.640625 C 12.875 -11.640625 13.726562 -11.960938 14.34375 -12.609375 C 14.957031 -13.253906 15.265625 -14.171875 15.265625 -15.359375 C 15.265625 -16.546875 14.957031 -17.457031 14.34375 -18.09375 C 13.726562 -18.726562 12.875 -19.046875 11.78125 -19.046875 C 10.675781 -19.046875 9.820312 -18.726562 9.21875 -18.09375 C 8.625 -17.457031 8.328125 -16.546875 8.328125 -15.359375 C 8.328125 -14.148438 8.625 -13.226562 9.21875 -12.59375 C 9.820312 -11.957031 10.675781 -11.640625 11.78125 -11.640625 Z M 11.71875 5.46875 C 13.664062 5.46875 15.078125 5.191406 15.953125 4.640625 C 16.835938 4.097656 17.28125 3.390625 17.28125 2.515625 C 17.28125 1.804688 17.050781 1.285156 16.59375 0.953125 C 16.144531 0.617188 15.429688 0.4375 14.453125 0.40625 L 9.984375 0.203125 C 9.835938 0.203125 9.695312 0.191406 9.5625 0.171875 C 9.4375 0.160156 9.3125 0.15625 9.1875 0.15625 C 8.226562 0.15625 7.5 0.359375 7 0.765625 C 6.5 1.179688 6.25 1.753906 6.25 2.484375 C 6.25 3.441406 6.707031 4.175781 7.625 4.6875 C 8.539062 5.207031 9.90625 5.46875 11.71875 5.46875 Z M 11.71875 5.46875 "/></g></g></g></svg>