<svg xmlns="http://www.w3.org/2000/svg" xmlns:xlink="http://www.w3.org/1999/xlink" width="700" zoomAndPan="magnify" viewBox="0 0 525 525.000007" height="700" preserveAspectRatio="xMidYMid meet" version="1.0"><defs><g/></defs><g fill="#000000" fill-opacity="1"><g transform="translate(145.309156, 229.396415)"><g><path d="M 54.15625 -43.5625 L 54.15625 -69.828125 L 67.921875 -69.828125 L 67.921875 0 L 54.15625 0 L 54.15625 -31.8125 L 22.875 -31.8125 L 22.875 0 L 9.078125 0 L 9.078125 -69.828125 L 22.875 -69.828125 L 22.875 -43.5625 Z M 54.15625 -43.5625 "/></g></g><g transform="translate(222.346988, 229.396415)"><g><path d="M 52.0625 -23.359375 L 18.203125 -23.359375 C 18.578125 -18.773438 19.878906 -15.4375 22.109375 -13.34375 C 24.335938 -11.257812 27.378906 -10.21875 31.234375 -10.21875 C 34.253906 -10.21875 36.703125 -10.78125 38.578125 -11.90625 C 40.460938 -13.039062 41.976562 -14.753906 43.125 -17.046875 L 44.125 -17.046875 L 52.921875 -11.421875 C 51.203125 -7.722656 48.601562 -4.726562 45.125 -2.4375 C 41.65625 -0.144531 37.023438 1 31.234375 1 C 25.785156 1 21.078125 -0.03125 17.109375 -2.09375 C 13.148438 -4.164062 10.097656 -7.25 7.953125 -11.34375 C 5.804688 -15.4375 4.734375 -20.425781 4.734375 -26.3125 C 4.734375 -32.300781 5.863281 -37.347656 8.125 -41.453125 C 10.382812 -45.554688 13.4375 -48.617188 17.28125 -50.640625 C 21.132812 -52.671875 25.46875 -53.6875 30.28125 -53.6875 C 37.726562 -53.6875 43.429688 -51.710938 47.390625 -47.765625 C 51.359375 -43.816406 53.34375 -38.019531 53.34375 -30.375 C 53.34375 -27.601562 53.25 -25.453125 53.0625 -23.921875 Z M 40.6875 -31.90625 C 40.5625 -35.914062 39.628906 -38.832031 37.890625 -40.65625 C 36.160156 -42.488281 33.625 -43.40625 30.28125 -43.40625 C 23.59375 -43.40625 19.660156 -39.570312 18.484375 -31.90625 Z M 40.6875 -31.90625 "/></g></g><g transform="translate(279.611936, 229.396415)"><g><path d="M 7.59375 0 L 7.59375 -52.671875 L 20.4375 -52.671875 L 20.4375 -44.84375 L 21.4375 -44.65625 C 22.71875 -47.582031 24.390625 -49.726562 26.453125 -51.09375 C 28.523438 -52.46875 31.039062 -53.15625 34 -53.15625 C 37 -53.15625 39.273438 -52.644531 40.828125 -51.625 L 38.59375 -40.21875 L 37.59375 -40.015625 C 36.726562 -40.367188 35.894531 -40.625 35.09375 -40.78125 C 34.300781 -40.945312 33.332031 -41.03125 32.1875 -41.03125 C 28.5 -41.03125 25.679688 -39.726562 23.734375 -37.125 C 21.796875 -34.53125 20.828125 -30.367188 20.828125 -24.640625 L 20.828125 0 Z M 7.59375 0 "/></g></g><g transform="translate(320.924847, 229.396415)"><g><path d="M 14.1875 -58.984375 C 11.800781 -58.984375 9.859375 -59.707031 8.359375 -61.15625 C 6.859375 -62.601562 6.109375 -64.472656 6.109375 -66.765625 C 6.109375 -69.023438 6.859375 -70.878906 8.359375 -72.328125 C 9.859375 -73.773438 11.800781 -74.5 14.1875 -74.5 C 15.78125 -74.5 17.195312 -74.164062 18.4375 -73.5 C 19.675781 -72.832031 20.640625 -71.914062 21.328125 -70.75 C 22.015625 -69.59375 22.359375 -68.265625 22.359375 -66.765625 C 22.359375 -65.273438 22.015625 -63.9375 21.328125 -62.75 C 20.640625 -61.570312 19.675781 -60.648438 18.4375 -59.984375 C 17.195312 -59.316406 15.78125 -58.984375 14.1875 -58.984375 Z M 7.59375 0 L 7.59375 -52.671875 L 20.828125 -52.671875 L 20.828125 0 Z M 7.59375 0 "/></g></g><g transform="translate(349.294637, 229.396415)"><g><path d="M 21.875 1 C 17.132812 1 13.515625 -0.28125 11.015625 -2.84375 C 8.515625 -5.40625 7.265625 -9.296875 7.265625 -14.515625 L 7.265625 -73.84375 L 20.484375 -73.84375 L 20.484375 -15.046875 C 20.484375 -11.828125 21.820312 -10.21875 24.5 -10.21875 C 25.257812 -10.21875 26.070312 -10.347656 26.9375 -10.609375 L 27.609375 -10.40625 L 28.796875 -0.234375 C 28.066406 0.140625 27.097656 0.4375 25.890625 0.65625 C 24.679688 0.882812 23.34375 1 21.875 1 Z M 21.875 1 "/></g></g></g><g fill="#000000" fill-opacity="1"><g transform="translate(59.976901, 359.814667)"><g><path d="M 33.90625 1 C 28.082031 1 23.046875 -0.328125 18.796875 -2.984375 C 14.546875 -5.640625 11.265625 -9.648438 8.953125 -15.015625 C 6.648438 -20.378906 5.5 -27.007812 5.5 -34.90625 C 5.5 -42.875 6.878906 -49.539062 9.640625 -54.90625 C 12.410156 -60.269531 16.253906 -64.265625 21.171875 -66.890625 C 26.097656 -69.515625 31.804688 -70.828125 38.296875 -70.828125 C 44.984375 -70.828125 50.679688 -69.582031 55.390625 -67.09375 C 60.109375 -64.613281 63.421875 -60.921875 65.328125 -56.015625 L 55.265625 -49.90625 L 54.0625 -49.953125 C 52.632812 -53.078125 50.617188 -55.351562 48.015625 -56.78125 C 45.421875 -58.21875 42.179688 -58.9375 38.296875 -58.9375 C 32.285156 -58.9375 27.6875 -57.03125 24.5 -53.21875 C 21.3125 -49.414062 19.71875 -43.3125 19.71875 -34.90625 C 19.71875 -26.46875 21.207031 -20.335938 24.1875 -16.515625 C 27.164062 -12.703125 31.566406 -10.796875 37.390625 -10.796875 C 42.421875 -10.796875 46.128906 -11.925781 48.515625 -14.1875 C 50.910156 -16.445312 52.109375 -19.820312 52.109375 -24.3125 L 52.109375 -27.3125 L 35.578125 -27.3125 L 35.578125 -38.546875 L 65.8125 -38.546875 L 65.8125 0 L 52.625 0 L 52.625 -9.359375 L 51.625 -9.5 C 50.195312 -6.15625 48.023438 -3.566406 45.109375 -1.734375 C 42.191406 0.0859375 38.457031 1 33.90625 1 Z M 33.90625 1 "/></g></g><g transform="translate(132.811802, 359.814667)"><g><path d="M 20.53125 1 C 17.15625 1 14.226562 0.378906 11.75 -0.859375 C 9.269531 -2.097656 7.359375 -3.921875 6.015625 -6.328125 C 4.679688 -8.734375 4.015625 -11.625 4.015625 -15 C 4.015625 -18.113281 4.679688 -20.726562 6.015625 -22.84375 C 7.359375 -24.96875 9.425781 -26.707031 12.21875 -28.0625 C 15.019531 -29.414062 18.6875 -30.457031 23.21875 -31.1875 C 26.363281 -31.695312 28.753906 -32.253906 30.390625 -32.859375 C 32.035156 -33.460938 33.144531 -34.144531 33.71875 -34.90625 C 34.289062 -35.675781 34.578125 -36.648438 34.578125 -37.828125 C 34.578125 -39.515625 33.988281 -40.800781 32.8125 -41.6875 C 31.632812 -42.582031 29.675781 -43.03125 26.9375 -43.03125 C 24.007812 -43.03125 21.222656 -42.375 18.578125 -41.0625 C 15.929688 -39.757812 13.640625 -38.046875 11.703125 -35.921875 L 10.75 -35.921875 L 5.203125 -44.28125 C 7.878906 -47.238281 11.144531 -49.546875 15 -51.203125 C 18.851562 -52.859375 23.054688 -53.6875 27.609375 -53.6875 C 34.578125 -53.6875 39.617188 -52.203125 42.734375 -49.234375 C 45.859375 -46.273438 47.421875 -42.070312 47.421875 -36.625 L 47.421875 -13.75 C 47.421875 -11.394531 48.457031 -10.21875 50.53125 -10.21875 C 51.320312 -10.21875 52.101562 -10.363281 52.875 -10.65625 L 53.53125 -10.453125 L 54.5 -1.234375 C 53.757812 -0.765625 52.738281 -0.378906 51.4375 -0.078125 C 50.132812 0.222656 48.703125 0.375 47.140625 0.375 C 43.984375 0.375 41.519531 -0.226562 39.75 -1.4375 C 37.988281 -2.644531 36.726562 -4.535156 35.96875 -7.109375 L 34.953125 -7.21875 C 32.378906 -1.738281 27.570312 1 20.53125 1 Z M 24.734375 -8.890625 C 27.796875 -8.890625 30.238281 -9.914062 32.0625 -11.96875 C 33.894531 -14.019531 34.8125 -16.875 34.8125 -20.53125 L 34.8125 -25.890625 L 33.90625 -26.078125 C 33.113281 -25.441406 32.070312 -24.90625 30.78125 -24.46875 C 29.488281 -24.039062 27.632812 -23.625 25.21875 -23.21875 C 22.351562 -22.738281 20.289062 -21.914062 19.03125 -20.75 C 17.769531 -19.59375 17.140625 -17.945312 17.140625 -15.8125 C 17.140625 -13.550781 17.804688 -11.832031 19.140625 -10.65625 C 20.484375 -9.476562 22.347656 -8.890625 24.734375 -8.890625 Z M 24.734375 -8.890625 "/></g></g><g transform="translate(188.357368, 359.814667)"><g><path d="M 7.59375 0 L 7.59375 -52.671875 L 20.296875 -52.671875 L 20.296875 -44.9375 L 21.296875 -44.703125 C 24.578125 -50.691406 29.894531 -53.6875 37.25 -53.6875 C 43.332031 -53.6875 47.796875 -52.03125 50.640625 -48.71875 C 53.492188 -45.40625 54.921875 -40.582031 54.921875 -34.25 L 54.921875 0 L 41.6875 0 L 41.6875 -32.625 C 41.6875 -36.125 40.984375 -38.644531 39.578125 -40.1875 C 38.179688 -41.726562 35.941406 -42.5 32.859375 -42.5 C 29.066406 -42.5 26.113281 -41.273438 24 -38.828125 C 21.882812 -36.378906 20.828125 -32.523438 20.828125 -27.265625 L 20.828125 0 Z M 7.59375 0 "/></g></g><g transform="translate(250.064051, 359.814667)"><g><path d="M 36.34375 -12.5625 L 39.78125 -2.765625 C 38.351562 -1.585938 36.554688 -0.664062 34.390625 0 C 32.222656 0.664062 29.769531 1 27.03125 1 C 21.332031 1 17 -0.550781 14.03125 -3.65625 C 11.070312 -6.757812 9.59375 -11.269531 9.59375 -17.1875 L 9.59375 -42.21875 L 1.578125 -42.21875 L 1.578125 -52.734375 L 9.59375 -52.734375 L 9.59375 -63 L 22.828125 -65.140625 L 22.828125 -52.734375 L 37.78125 -52.734375 L 37.78125 -42.21875 L 22.828125 -42.21875 L 22.828125 -18.15625 C 22.828125 -15.539062 23.367188 -13.632812 24.453125 -12.4375 C 25.535156 -11.25 27.113281 -10.65625 29.1875 -10.65625 C 31.539062 -10.65625 33.59375 -11.289062 35.34375 -12.5625 Z M 36.34375 -12.5625 "/></g></g><g transform="translate(290.994877, 359.814667)"><g><path d="M 52.0625 -23.359375 L 18.203125 -23.359375 C 18.578125 -18.773438 19.878906 -15.4375 22.109375 -13.34375 C 24.335938 -11.257812 27.378906 -10.21875 31.234375 -10.21875 C 34.253906 -10.21875 36.703125 -10.78125 38.578125 -11.90625 C 40.460938 -13.039062 41.976562 -14.753906 43.125 -17.046875 L 44.125 -17.046875 L 52.921875 -11.421875 C 51.203125 -7.722656 48.601562 -4.726562 45.125 -2.4375 C 41.65625 -0.144531 37.023438 1 31.234375 1 C 25.785156 1 21.078125 -0.03125 17.109375 -2.09375 C 13.148438 -4.164062 10.097656 -7.25 7.953125 -11.34375 C 5.804688 -15.4375 4.734375 -20.425781 4.734375 -26.3125 C 4.734375 -32.300781 5.863281 -37.347656 8.125 -41.453125 C 10.382812 -45.554688 13.4375 -48.617188 17.28125 -50.640625 C 21.132812 -52.671875 25.46875 -53.6875 30.28125 -53.6875 C 37.726562 -53.6875 43.429688 -51.710938 47.390625 -47.765625 C 51.359375 -43.816406 53.34375 -38.019531 53.34375 -30.375 C 53.34375 -27.601562 53.25 -25.453125 53.0625 -23.921875 Z M 40.6875 -31.90625 C 40.5625 -35.914062 39.628906 -38.832031 37.890625 -40.65625 C 36.160156 -42.488281 33.625 -43.40625 30.28125 -43.40625 C 23.59375 -43.40625 19.660156 -39.570312 18.484375 -31.90625 Z M 40.6875 -31.90625 "/></g></g><g transform="translate(348.259825, 359.814667)"><g><path d="M 7.59375 0 L 7.59375 -52.671875 L 20.296875 -52.671875 L 20.296875 -44.9375 L 21.296875 -44.703125 C 24.578125 -50.691406 29.894531 -53.6875 37.25 -53.6875 C 43.332031 -53.6875 47.796875 -52.03125 50.640625 -48.71875 C 53.492188 -45.40625 54.921875 -40.582031 54.921875 -34.25 L 54.921875 0 L 41.6875 0 L 41.6875 -32.625 C 41.6875 -36.125 40.984375 -38.644531 39.578125 -40.1875 C 38.179688 -41.726562 35.941406 -42.5 32.859375 -42.5 C 29.066406 -42.5 26.113281 -41.273438 24 -38.828125 C 21.882812 -36.378906 20.828125 -32.523438 20.828125 -27.265625 L 20.828125 0 Z M 7.59375 0 "/></g></g><g transform="translate(409.966508, 359.814667)"><g><path d="M 27.3125 22.359375 C 18.625 22.359375 12.207031 21.082031 8.0625 18.53125 C 3.925781 15.976562 1.859375 12.425781 1.859375 7.875 C 1.859375 5.101562 2.738281 2.832031 4.5 1.0625 C 6.269531 -0.695312 8.8125 -1.878906 12.125 -2.484375 L 12.125 -3.484375 C 10.34375 -4.566406 9.0625 -5.769531 8.28125 -7.09375 C 7.5 -8.414062 7.109375 -9.953125 7.109375 -11.703125 C 7.109375 -15.929688 9.863281 -18.78125 15.375 -20.25 L 15.375 -21.25 C 12.539062 -22.875 10.40625 -24.890625 8.96875 -27.296875 C 7.539062 -29.703125 6.828125 -32.609375 6.828125 -36.015625 C 6.828125 -39.515625 7.628906 -42.59375 9.234375 -45.25 C 10.847656 -47.90625 13.207031 -49.972656 16.3125 -51.453125 C 19.414062 -52.941406 23.132812 -53.6875 27.46875 -53.6875 C 31.851562 -53.6875 35.351562 -52.921875 37.96875 -51.390625 C 39.59375 -53.742188 40.53125 -56.46875 40.78125 -59.5625 L 41.796875 -60.171875 L 51.296875 -57.84375 C 51.003906 -55.320312 50.269531 -53.207031 49.09375 -51.5 C 47.914062 -49.800781 46.085938 -48.285156 43.609375 -46.953125 L 43.609375 -45.890625 C 46.566406 -43.285156 48.046875 -39.640625 48.046875 -34.953125 C 48.046875 -31.710938 47.234375 -28.800781 45.609375 -26.21875 C 43.984375 -23.644531 41.617188 -21.609375 38.515625 -20.109375 C 35.410156 -18.609375 31.726562 -17.859375 27.46875 -17.859375 L 25.453125 -17.90625 C 24.179688 -17.96875 23.289062 -18 22.78125 -18 C 21.570312 -18 20.625 -17.671875 19.9375 -17.015625 C 19.25 -16.367188 18.90625 -15.535156 18.90625 -14.515625 C 18.90625 -13.398438 19.351562 -12.53125 20.25 -11.90625 C 21.144531 -11.289062 22.453125 -10.953125 24.171875 -10.890625 L 35.96875 -10.453125 C 47.613281 -10.109375 53.4375 -5.097656 53.4375 4.578125 C 53.4375 7.984375 52.566406 11.015625 50.828125 13.671875 C 49.097656 16.335938 46.289062 18.453125 42.40625 20.015625 C 38.519531 21.578125 33.488281 22.359375 27.3125 22.359375 Z M 27.46875 -27.125 C 30.007812 -27.125 31.992188 -27.867188 33.421875 -29.359375 C 34.859375 -30.859375 35.578125 -32.992188 35.578125 -35.765625 C 35.578125 -38.535156 34.859375 -40.660156 33.421875 -42.140625 C 31.992188 -43.628906 30.007812 -44.375 27.46875 -44.375 C 24.882812 -44.375 22.890625 -43.628906 21.484375 -42.140625 C 20.085938 -40.660156 19.390625 -38.535156 19.390625 -35.765625 C 19.390625 -32.960938 20.085938 -30.820312 21.484375 -29.34375 C 22.890625 -27.863281 24.882812 -27.125 27.46875 -27.125 Z M 27.3125 12.75 C 31.832031 12.75 35.117188 12.113281 37.171875 10.84375 C 39.234375 9.570312 40.265625 7.914062 40.265625 5.875 C 40.265625 4.21875 39.738281 3 38.6875 2.21875 C 37.632812 1.4375 35.960938 1.015625 33.671875 0.953125 L 23.265625 0.484375 C 22.910156 0.484375 22.582031 0.460938 22.28125 0.421875 C 21.976562 0.390625 21.679688 0.375 21.390625 0.375 C 19.160156 0.375 17.460938 0.851562 16.296875 1.8125 C 15.140625 2.769531 14.5625 4.09375 14.5625 5.78125 C 14.5625 8.007812 15.628906 9.726562 17.765625 10.9375 C 19.898438 12.144531 23.082031 12.75 27.3125 12.75 Z M 27.3125 12.75 "/></g></g></g></svg>