<svg xmlns="http://www.w3.org/2000/svg" xmlns:xlink="http://www.w3.org/1999/xlink" width="50" zoomAndPan="magnify" viewBox="0 0 37.5 37.499999" height="50" preserveAspectRatio="xMidYMid meet" version="1.0"><defs><g/></defs><g fill="#000000" fill-opacity="1"><g transform="translate(10.226922, 16.200657)"><g><path d="M 3.828125 -3.078125 L 3.828125 -4.9375 L 4.796875 -4.9375 L 4.796875 0 L 3.828125 0 L 3.828125 -2.25 L 1.609375 -2.25 L 1.609375 0 L 0.640625 0 L 0.640625 -4.9375 L 1.609375 -4.9375 L 1.609375 -3.078125 Z M 3.828125 -3.078125 "/></g></g><g transform="translate(15.667564, 16.200657)"><g><path d="M 3.671875 -1.65625 L 1.28125 -1.65625 C 1.3125 -1.320312 1.40625 -1.082031 1.5625 -0.9375 C 1.71875 -0.789062 1.929688 -0.71875 2.203125 -0.71875 C 2.421875 -0.71875 2.59375 -0.757812 2.71875 -0.84375 C 2.851562 -0.925781 2.960938 -1.046875 3.046875 -1.203125 L 3.109375 -1.203125 L 3.734375 -0.8125 C 3.609375 -0.550781 3.421875 -0.335938 3.171875 -0.171875 C 2.929688 -0.00390625 2.609375 0.078125 2.203125 0.078125 C 1.816406 0.078125 1.484375 0.00390625 1.203125 -0.140625 C 0.929688 -0.296875 0.71875 -0.515625 0.5625 -0.796875 C 0.40625 -1.085938 0.328125 -1.441406 0.328125 -1.859375 C 0.328125 -2.273438 0.40625 -2.628906 0.5625 -2.921875 C 0.726562 -3.210938 0.945312 -3.429688 1.21875 -3.578125 C 1.488281 -3.722656 1.796875 -3.796875 2.140625 -3.796875 C 2.660156 -3.796875 3.0625 -3.65625 3.34375 -3.375 C 3.625 -3.09375 3.765625 -2.679688 3.765625 -2.140625 C 3.765625 -1.941406 3.757812 -1.789062 3.75 -1.6875 Z M 2.875 -2.25 C 2.863281 -2.53125 2.796875 -2.734375 2.671875 -2.859375 C 2.546875 -2.992188 2.367188 -3.0625 2.140625 -3.0625 C 1.671875 -3.0625 1.394531 -2.789062 1.3125 -2.25 Z M 2.875 -2.25 "/></g></g><g transform="translate(19.711785, 16.200657)"><g><path d="M 0.53125 0 L 0.53125 -3.71875 L 1.4375 -3.71875 L 1.4375 -3.171875 L 1.515625 -3.15625 C 1.609375 -3.363281 1.726562 -3.515625 1.875 -3.609375 C 2.019531 -3.703125 2.195312 -3.75 2.40625 -3.75 C 2.613281 -3.75 2.773438 -3.710938 2.890625 -3.640625 L 2.71875 -2.84375 L 2.65625 -2.828125 C 2.59375 -2.847656 2.53125 -2.863281 2.46875 -2.875 C 2.414062 -2.882812 2.347656 -2.890625 2.265625 -2.890625 C 2.003906 -2.890625 1.804688 -2.796875 1.671875 -2.609375 C 1.535156 -2.429688 1.46875 -2.140625 1.46875 -1.734375 L 1.46875 0 Z M 0.53125 0 "/></g></g><g transform="translate(22.629426, 16.200657)"><g><path d="M 1 -4.171875 C 0.832031 -4.171875 0.695312 -4.21875 0.59375 -4.3125 C 0.488281 -4.414062 0.4375 -4.550781 0.4375 -4.71875 C 0.4375 -4.875 0.488281 -5.003906 0.59375 -5.109375 C 0.695312 -5.210938 0.832031 -5.265625 1 -5.265625 C 1.113281 -5.265625 1.210938 -5.238281 1.296875 -5.1875 C 1.390625 -5.144531 1.457031 -5.082031 1.5 -5 C 1.550781 -4.914062 1.578125 -4.820312 1.578125 -4.71875 C 1.578125 -4.613281 1.550781 -4.519531 1.5 -4.4375 C 1.457031 -4.351562 1.390625 -4.285156 1.296875 -4.234375 C 1.210938 -4.191406 1.113281 -4.171875 1 -4.171875 Z M 0.53125 0 L 0.53125 -3.71875 L 1.46875 -3.71875 L 1.46875 0 Z M 0.53125 0 "/></g></g><g transform="translate(24.632985, 16.200657)"><g><path d="M 1.546875 0.078125 C 1.210938 0.078125 0.957031 -0.0078125 0.78125 -0.1875 C 0.601562 -0.375 0.515625 -0.65625 0.515625 -1.03125 L 0.515625 -5.21875 L 1.453125 -5.21875 L 1.453125 -1.0625 C 1.453125 -0.832031 1.546875 -0.71875 1.734375 -0.71875 C 1.785156 -0.71875 1.84375 -0.726562 1.90625 -0.75 L 1.953125 -0.734375 L 2.03125 -0.015625 C 1.976562 0.015625 1.910156 0.0351562 1.828125 0.046875 C 1.742188 0.0664062 1.648438 0.078125 1.546875 0.078125 Z M 1.546875 0.078125 "/></g></g></g><g fill="#000000" fill-opacity="1"><g transform="translate(4.200504, 25.411183)"><g><path d="M 2.390625 0.078125 C 1.984375 0.078125 1.628906 -0.015625 1.328125 -0.203125 C 1.023438 -0.398438 0.789062 -0.6875 0.625 -1.0625 C 0.46875 -1.4375 0.390625 -1.90625 0.390625 -2.46875 C 0.390625 -3.03125 0.484375 -3.5 0.671875 -3.875 C 0.867188 -4.25 1.140625 -4.53125 1.484375 -4.71875 C 1.835938 -4.90625 2.242188 -5 2.703125 -5 C 3.171875 -5 3.570312 -4.910156 3.90625 -4.734375 C 4.238281 -4.554688 4.472656 -4.296875 4.609375 -3.953125 L 3.90625 -3.53125 L 3.8125 -3.53125 C 3.71875 -3.75 3.578125 -3.90625 3.390625 -4 C 3.203125 -4.101562 2.972656 -4.15625 2.703125 -4.15625 C 2.273438 -4.15625 1.945312 -4.019531 1.71875 -3.75 C 1.5 -3.488281 1.390625 -3.0625 1.390625 -2.46875 C 1.390625 -1.875 1.492188 -1.441406 1.703125 -1.171875 C 1.910156 -0.898438 2.222656 -0.765625 2.640625 -0.765625 C 2.992188 -0.765625 3.253906 -0.84375 3.421875 -1 C 3.585938 -1.15625 3.671875 -1.394531 3.671875 -1.71875 L 3.671875 -1.921875 L 2.515625 -1.921875 L 2.515625 -2.71875 L 4.640625 -2.71875 L 4.640625 0 L 3.71875 0 L 3.71875 -0.65625 L 3.640625 -0.671875 C 3.546875 -0.429688 3.394531 -0.242188 3.1875 -0.109375 C 2.976562 0.015625 2.710938 0.078125 2.390625 0.078125 Z M 2.390625 0.078125 "/></g></g><g transform="translate(9.344322, 25.411183)"><g><path d="M 1.453125 0.078125 C 1.210938 0.078125 1.003906 0.0351562 0.828125 -0.046875 C 0.648438 -0.140625 0.515625 -0.269531 0.421875 -0.4375 C 0.328125 -0.613281 0.28125 -0.820312 0.28125 -1.0625 C 0.28125 -1.28125 0.328125 -1.460938 0.421875 -1.609375 C 0.515625 -1.765625 0.660156 -1.890625 0.859375 -1.984375 C 1.054688 -2.078125 1.316406 -2.148438 1.640625 -2.203125 C 1.859375 -2.234375 2.023438 -2.269531 2.140625 -2.3125 C 2.253906 -2.363281 2.332031 -2.414062 2.375 -2.46875 C 2.414062 -2.519531 2.4375 -2.585938 2.4375 -2.671875 C 2.4375 -2.785156 2.394531 -2.875 2.3125 -2.9375 C 2.226562 -3 2.09375 -3.03125 1.90625 -3.03125 C 1.695312 -3.03125 1.5 -2.984375 1.3125 -2.890625 C 1.125 -2.804688 0.960938 -2.6875 0.828125 -2.53125 L 0.765625 -2.53125 L 0.375 -3.125 C 0.5625 -3.332031 0.789062 -3.492188 1.0625 -3.609375 C 1.332031 -3.734375 1.628906 -3.796875 1.953125 -3.796875 C 2.441406 -3.796875 2.796875 -3.6875 3.015625 -3.46875 C 3.234375 -3.257812 3.34375 -2.96875 3.34375 -2.59375 L 3.34375 -0.96875 C 3.34375 -0.800781 3.414062 -0.71875 3.5625 -0.71875 C 3.625 -0.71875 3.679688 -0.726562 3.734375 -0.75 L 3.78125 -0.734375 L 3.84375 -0.09375 C 3.789062 -0.0507812 3.71875 -0.0195312 3.625 0 C 3.539062 0.0195312 3.441406 0.03125 3.328125 0.03125 C 3.109375 0.03125 2.9375 -0.0078125 2.8125 -0.09375 C 2.6875 -0.1875 2.597656 -0.320312 2.546875 -0.5 L 2.46875 -0.515625 C 2.28125 -0.117188 1.941406 0.078125 1.453125 0.078125 Z M 1.75 -0.625 C 1.96875 -0.625 2.140625 -0.695312 2.265625 -0.84375 C 2.390625 -0.988281 2.453125 -1.191406 2.453125 -1.453125 L 2.453125 -1.828125 L 2.390625 -1.84375 C 2.335938 -1.800781 2.265625 -1.765625 2.171875 -1.734375 C 2.078125 -1.703125 1.945312 -1.671875 1.78125 -1.640625 C 1.582031 -1.609375 1.4375 -1.550781 1.34375 -1.46875 C 1.25 -1.382812 1.203125 -1.265625 1.203125 -1.109375 C 1.203125 -0.953125 1.25 -0.832031 1.34375 -0.75 C 1.445312 -0.664062 1.582031 -0.625 1.75 -0.625 Z M 1.75 -0.625 "/></g></g><g transform="translate(13.267115, 25.411183)"><g><path d="M 0.53125 0 L 0.53125 -3.71875 L 1.4375 -3.71875 L 1.4375 -3.171875 L 1.5 -3.15625 C 1.726562 -3.582031 2.101562 -3.796875 2.625 -3.796875 C 3.0625 -3.796875 3.378906 -3.675781 3.578125 -3.4375 C 3.773438 -3.207031 3.875 -2.867188 3.875 -2.421875 L 3.875 0 L 2.9375 0 L 2.9375 -2.296875 C 2.9375 -2.546875 2.882812 -2.722656 2.78125 -2.828125 C 2.6875 -2.941406 2.53125 -3 2.3125 -3 C 2.050781 -3 1.84375 -2.910156 1.6875 -2.734375 C 1.539062 -2.566406 1.46875 -2.296875 1.46875 -1.921875 L 1.46875 0 Z M 0.53125 0 "/></g></g><g transform="translate(17.625025, 25.411183)"><g><path d="M 2.5625 -0.890625 L 2.8125 -0.203125 C 2.707031 -0.117188 2.578125 -0.0507812 2.421875 0 C 2.273438 0.0507812 2.101562 0.078125 1.90625 0.078125 C 1.507812 0.078125 1.203125 -0.03125 0.984375 -0.25 C 0.773438 -0.476562 0.671875 -0.800781 0.671875 -1.21875 L 0.671875 -2.984375 L 0.109375 -2.984375 L 0.109375 -3.71875 L 0.671875 -3.71875 L 0.671875 -4.453125 L 1.609375 -4.59375 L 1.609375 -3.71875 L 2.671875 -3.71875 L 2.671875 -2.984375 L 1.609375 -2.984375 L 1.609375 -1.28125 C 1.609375 -1.09375 1.644531 -0.957031 1.71875 -0.875 C 1.800781 -0.789062 1.914062 -0.75 2.0625 -0.75 C 2.226562 -0.75 2.375 -0.796875 2.5 -0.890625 Z M 2.5625 -0.890625 "/></g></g><g transform="translate(20.515682, 25.411183)"><g><path d="M 3.671875 -1.65625 L 1.28125 -1.65625 C 1.3125 -1.320312 1.40625 -1.082031 1.5625 -0.9375 C 1.71875 -0.789062 1.929688 -0.71875 2.203125 -0.71875 C 2.421875 -0.71875 2.59375 -0.757812 2.71875 -0.84375 C 2.851562 -0.925781 2.960938 -1.046875 3.046875 -1.203125 L 3.109375 -1.203125 L 3.734375 -0.8125 C 3.609375 -0.550781 3.421875 -0.335938 3.171875 -0.171875 C 2.929688 -0.00390625 2.609375 0.078125 2.203125 0.078125 C 1.816406 0.078125 1.484375 0.00390625 1.203125 -0.140625 C 0.929688 -0.296875 0.71875 -0.515625 0.5625 -0.796875 C 0.40625 -1.085938 0.328125 -1.441406 0.328125 -1.859375 C 0.328125 -2.273438 0.40625 -2.628906 0.5625 -2.921875 C 0.726562 -3.210938 0.945312 -3.429688 1.21875 -3.578125 C 1.488281 -3.722656 1.796875 -3.796875 2.140625 -3.796875 C 2.660156 -3.796875 3.0625 -3.65625 3.34375 -3.375 C 3.625 -3.09375 3.765625 -2.679688 3.765625 -2.140625 C 3.765625 -1.941406 3.757812 -1.789062 3.75 -1.6875 Z M 2.875 -2.25 C 2.863281 -2.53125 2.796875 -2.734375 2.671875 -2.859375 C 2.546875 -2.992188 2.367188 -3.0625 2.140625 -3.0625 C 1.671875 -3.0625 1.394531 -2.789062 1.3125 -2.25 Z M 2.875 -2.25 "/></g></g><g transform="translate(24.559904, 25.411183)"><g><path d="M 0.53125 0 L 0.53125 -3.71875 L 1.4375 -3.71875 L 1.4375 -3.171875 L 1.5 -3.15625 C 1.726562 -3.582031 2.101562 -3.796875 2.625 -3.796875 C 3.0625 -3.796875 3.378906 -3.675781 3.578125 -3.4375 C 3.773438 -3.207031 3.875 -2.867188 3.875 -2.421875 L 3.875 0 L 2.9375 0 L 2.9375 -2.296875 C 2.9375 -2.546875 2.882812 -2.722656 2.78125 -2.828125 C 2.6875 -2.941406 2.53125 -3 2.3125 -3 C 2.050781 -3 1.84375 -2.910156 1.6875 -2.734375 C 1.539062 -2.566406 1.46875 -2.296875 1.46875 -1.921875 L 1.46875 0 Z M 0.53125 0 "/></g></g><g transform="translate(28.917814, 25.411183)"><g><path d="M 1.921875 1.578125 C 1.316406 1.578125 0.863281 1.484375 0.5625 1.296875 C 0.269531 1.117188 0.125 0.875 0.125 0.5625 C 0.125 0.363281 0.1875 0.203125 0.3125 0.078125 C 0.4375 -0.046875 0.617188 -0.128906 0.859375 -0.171875 L 0.859375 -0.25 C 0.734375 -0.320312 0.640625 -0.40625 0.578125 -0.5 C 0.523438 -0.59375 0.5 -0.703125 0.5 -0.828125 C 0.5 -1.128906 0.691406 -1.332031 1.078125 -1.4375 L 1.078125 -1.5 C 0.878906 -1.613281 0.726562 -1.753906 0.625 -1.921875 C 0.53125 -2.097656 0.484375 -2.304688 0.484375 -2.546875 C 0.484375 -2.785156 0.539062 -3 0.65625 -3.1875 C 0.769531 -3.382812 0.9375 -3.535156 1.15625 -3.640625 C 1.375 -3.742188 1.632812 -3.796875 1.9375 -3.796875 C 2.25 -3.796875 2.5 -3.738281 2.6875 -3.625 C 2.800781 -3.789062 2.863281 -3.984375 2.875 -4.203125 L 2.953125 -4.25 L 3.625 -4.078125 C 3.601562 -3.898438 3.550781 -3.75 3.46875 -3.625 C 3.382812 -3.507812 3.253906 -3.40625 3.078125 -3.3125 L 3.078125 -3.234375 C 3.285156 -3.054688 3.390625 -2.800781 3.390625 -2.46875 C 3.390625 -2.238281 3.332031 -2.03125 3.21875 -1.84375 C 3.101562 -1.664062 2.9375 -1.523438 2.71875 -1.421875 C 2.5 -1.316406 2.238281 -1.265625 1.9375 -1.265625 L 1.796875 -1.265625 C 1.703125 -1.265625 1.640625 -1.265625 1.609375 -1.265625 C 1.523438 -1.265625 1.457031 -1.242188 1.40625 -1.203125 C 1.351562 -1.160156 1.328125 -1.101562 1.328125 -1.03125 C 1.328125 -0.945312 1.359375 -0.882812 1.421875 -0.84375 C 1.492188 -0.800781 1.585938 -0.773438 1.703125 -0.765625 L 2.546875 -0.734375 C 3.367188 -0.710938 3.78125 -0.359375 3.78125 0.328125 C 3.78125 0.566406 3.71875 0.78125 3.59375 0.96875 C 3.46875 1.15625 3.265625 1.300781 2.984375 1.40625 C 2.710938 1.519531 2.359375 1.578125 1.921875 1.578125 Z M 1.9375 -1.921875 C 2.113281 -1.921875 2.253906 -1.972656 2.359375 -2.078125 C 2.460938 -2.179688 2.515625 -2.332031 2.515625 -2.53125 C 2.515625 -2.71875 2.460938 -2.863281 2.359375 -2.96875 C 2.253906 -3.070312 2.113281 -3.125 1.9375 -3.125 C 1.757812 -3.125 1.617188 -3.070312 1.515625 -2.96875 C 1.421875 -2.863281 1.375 -2.71875 1.375 -2.53125 C 1.375 -2.332031 1.421875 -2.179688 1.515625 -2.078125 C 1.617188 -1.972656 1.757812 -1.921875 1.9375 -1.921875 Z M 1.921875 0.90625 C 2.242188 0.90625 2.476562 0.859375 2.625 0.765625 C 2.769531 0.671875 2.84375 0.554688 2.84375 0.421875 C 2.84375 0.296875 2.804688 0.207031 2.734375 0.15625 C 2.660156 0.101562 2.539062 0.0703125 2.375 0.0625 L 1.640625 0.03125 C 1.617188 0.03125 1.597656 0.03125 1.578125 0.03125 C 1.554688 0.03125 1.535156 0.03125 1.515625 0.03125 C 1.359375 0.03125 1.238281 0.0625 1.15625 0.125 C 1.070312 0.195312 1.03125 0.289062 1.03125 0.40625 C 1.03125 0.5625 1.101562 0.679688 1.25 0.765625 C 1.40625 0.859375 1.628906 0.90625 1.921875 0.90625 Z M 1.921875 0.90625 "/></g></g></g></svg>