<svg xmlns="http://www.w3.org/2000/svg" xmlns:xlink="http://www.w3.org/1999/xlink" width="1080" zoomAndPan="magnify" viewBox="0 0 810 599.999999" height="800" preserveAspectRatio="xMidYMid meet" version="1.0"><defs><g/></defs><g fill="#000000" fill-opacity="1"><g transform="translate(206.033754, 209.46099)"><g><path d="M 91.953125 -73.953125 L 91.953125 -118.546875 L 115.296875 -118.546875 L 115.296875 0 L 91.953125 0 L 91.953125 -54 L 38.84375 -54 L 38.84375 0 L 15.40625 0 L 15.40625 -118.546875 L 38.84375 -118.546875 L 38.84375 -73.953125 Z M 91.953125 -73.953125 "/></g></g><g transform="translate(336.828324, 209.46099)"><g><path d="M 88.390625 -39.65625 L 30.890625 -39.65625 C 31.535156 -31.863281 33.75 -26.195312 37.53125 -22.65625 C 41.320312 -19.125 46.488281 -17.359375 53.03125 -17.359375 C 58.164062 -17.359375 62.328125 -18.316406 65.515625 -20.234375 C 68.703125 -22.148438 71.269531 -25.054688 73.21875 -28.953125 L 74.921875 -28.953125 L 89.84375 -19.375 C 86.925781 -13.101562 82.519531 -8.019531 76.625 -4.125 C 70.726562 -0.238281 62.863281 1.703125 53.03125 1.703125 C 43.789062 1.703125 35.800781 -0.0507812 29.0625 -3.5625 C 22.332031 -7.082031 17.144531 -12.3125 13.5 -19.25 C 9.851562 -26.195312 8.03125 -34.671875 8.03125 -44.671875 C 8.03125 -54.835938 9.945312 -63.40625 13.78125 -70.375 C 17.625 -77.351562 22.816406 -82.554688 29.359375 -85.984375 C 35.898438 -89.421875 43.25 -91.140625 51.40625 -91.140625 C 64.050781 -91.140625 73.738281 -87.785156 80.46875 -81.078125 C 87.207031 -74.378906 90.578125 -64.539062 90.578125 -51.5625 C 90.578125 -46.863281 90.410156 -43.21875 90.078125 -40.625 Z M 69.078125 -54.171875 C 68.867188 -60.972656 67.289062 -65.925781 64.34375 -69.03125 C 61.394531 -72.144531 57.082031 -73.703125 51.40625 -73.703125 C 40.050781 -73.703125 33.375 -67.191406 31.375 -54.171875 Z M 69.078125 -54.171875 "/></g></g><g transform="translate(434.052558, 209.46099)"><g><path d="M 12.890625 0 L 12.890625 -89.4375 L 34.703125 -89.4375 L 34.703125 -76.140625 L 36.40625 -75.8125 C 38.570312 -80.789062 41.410156 -84.441406 44.921875 -86.765625 C 48.429688 -89.085938 52.703125 -90.25 57.734375 -90.25 C 62.816406 -90.25 66.679688 -89.382812 69.328125 -87.65625 L 65.515625 -68.28125 L 63.8125 -67.953125 C 62.351562 -68.546875 60.945312 -68.976562 59.59375 -69.25 C 58.25 -69.519531 56.601562 -69.65625 54.65625 -69.65625 C 48.382812 -69.65625 43.597656 -67.453125 40.296875 -63.046875 C 37.003906 -58.640625 35.359375 -51.570312 35.359375 -41.84375 L 35.359375 0 Z M 12.890625 0 "/></g></g><g transform="translate(504.193477, 209.46099)"><g><path d="M 24.078125 -100.140625 C 20.023438 -100.140625 16.726562 -101.367188 14.1875 -103.828125 C 11.644531 -106.285156 10.375 -109.460938 10.375 -113.359375 C 10.375 -117.191406 11.644531 -120.335938 14.1875 -122.796875 C 16.726562 -125.265625 20.023438 -126.5 24.078125 -126.5 C 26.785156 -126.5 29.191406 -125.929688 31.296875 -124.796875 C 33.410156 -123.660156 35.046875 -122.101562 36.203125 -120.125 C 37.367188 -118.15625 37.953125 -115.898438 37.953125 -113.359375 C 37.953125 -110.816406 37.367188 -108.546875 36.203125 -106.546875 C 35.046875 -104.546875 33.410156 -102.976562 31.296875 -101.84375 C 29.191406 -100.707031 26.785156 -100.140625 24.078125 -100.140625 Z M 12.890625 0 L 12.890625 -89.4375 L 35.359375 -89.4375 L 35.359375 0 Z M 12.890625 0 "/></g></g><g transform="translate(552.35961, 209.46099)"><g><path d="M 37.140625 1.703125 C 29.085938 1.703125 22.9375 -0.472656 18.6875 -4.828125 C 14.445312 -9.179688 12.328125 -15.789062 12.328125 -24.65625 L 12.328125 -125.359375 L 34.78125 -125.359375 L 34.78125 -25.546875 C 34.78125 -20.085938 37.050781 -17.359375 41.59375 -17.359375 C 42.894531 -17.359375 44.273438 -17.570312 45.734375 -18 L 46.875 -17.671875 L 48.890625 -0.40625 C 47.648438 0.238281 46 0.75 43.9375 1.125 C 41.882812 1.507812 39.617188 1.703125 37.140625 1.703125 Z M 37.140625 1.703125 "/></g></g></g><g fill="#000000" fill-opacity="1"><g transform="translate(61.156943, 430.884654)"><g><path d="M 57.578125 1.703125 C 47.679688 1.703125 39.125 -0.550781 31.90625 -5.0625 C 24.6875 -9.582031 19.117188 -16.394531 15.203125 -25.5 C 11.285156 -34.613281 9.328125 -45.867188 9.328125 -59.265625 C 9.328125 -72.785156 11.675781 -84.097656 16.375 -93.203125 C 21.082031 -102.316406 27.609375 -109.101562 35.953125 -113.5625 C 44.304688 -118.019531 54 -120.25 65.03125 -120.25 C 76.382812 -120.25 86.0625 -118.140625 94.0625 -113.921875 C 102.0625 -109.703125 107.679688 -103.429688 110.921875 -95.109375 L 93.8125 -84.734375 L 91.78125 -84.8125 C 89.351562 -90.113281 85.9375 -93.976562 81.53125 -96.40625 C 77.125 -98.84375 71.625 -100.0625 65.03125 -100.0625 C 54.8125 -100.0625 47 -96.832031 41.59375 -90.375 C 36.1875 -83.914062 33.484375 -73.546875 33.484375 -59.265625 C 33.484375 -44.941406 36.007812 -34.535156 41.0625 -28.046875 C 46.125 -21.566406 53.597656 -18.328125 63.484375 -18.328125 C 72.023438 -18.328125 78.320312 -20.242188 82.375 -24.078125 C 86.4375 -27.921875 88.46875 -33.648438 88.46875 -41.265625 L 88.46875 -46.375 L 60.40625 -46.375 L 60.40625 -65.4375 L 111.734375 -65.4375 L 111.734375 0 L 89.359375 0 L 89.359375 -15.890625 L 87.65625 -16.140625 C 85.21875 -10.460938 81.523438 -6.066406 76.578125 -2.953125 C 71.640625 0.148438 65.304688 1.703125 57.578125 1.703125 Z M 57.578125 1.703125 "/></g></g><g transform="translate(184.815789, 430.884654)"><g><path d="M 34.859375 1.703125 C 29.128906 1.703125 24.15625 0.648438 19.9375 -1.453125 C 15.726562 -3.566406 12.488281 -6.660156 10.21875 -10.734375 C 7.945312 -14.816406 6.8125 -19.722656 6.8125 -25.453125 C 6.8125 -30.753906 7.945312 -35.203125 10.21875 -38.796875 C 12.488281 -42.390625 16 -45.332031 20.75 -47.625 C 25.507812 -49.925781 31.726562 -51.703125 39.40625 -52.953125 C 44.757812 -53.816406 48.828125 -54.757812 51.609375 -55.78125 C 54.390625 -56.8125 56.265625 -57.972656 57.234375 -59.265625 C 58.210938 -60.566406 58.703125 -62.21875 58.703125 -64.21875 C 58.703125 -67.082031 57.703125 -69.269531 55.703125 -70.78125 C 53.703125 -72.300781 50.378906 -73.0625 45.734375 -73.0625 C 40.753906 -73.0625 36.019531 -71.953125 31.53125 -69.734375 C 27.050781 -67.515625 23.160156 -64.59375 19.859375 -60.96875 L 18.25 -60.96875 L 8.84375 -75.171875 C 13.382812 -80.191406 18.921875 -84.109375 25.453125 -86.921875 C 31.992188 -89.734375 39.132812 -91.140625 46.875 -91.140625 C 58.707031 -91.140625 67.269531 -88.625 72.5625 -83.59375 C 77.863281 -78.570312 80.515625 -71.4375 80.515625 -62.1875 L 80.515625 -23.359375 C 80.515625 -19.359375 82.269531 -17.359375 85.78125 -17.359375 C 87.132812 -17.359375 88.460938 -17.597656 89.765625 -18.078125 L 90.890625 -17.75 L 92.515625 -2.109375 C 91.273438 -1.296875 89.546875 -0.628906 87.328125 -0.109375 C 85.109375 0.398438 82.675781 0.65625 80.03125 0.65625 C 74.675781 0.65625 70.5 -0.367188 67.5 -2.421875 C 64.5 -4.484375 62.351562 -7.703125 61.0625 -12.078125 L 59.359375 -12.25 C 54.972656 -2.945312 46.804688 1.703125 34.859375 1.703125 Z M 42 -15.078125 C 47.1875 -15.078125 51.332031 -16.820312 54.4375 -20.3125 C 57.550781 -23.800781 59.109375 -28.648438 59.109375 -34.859375 L 59.109375 -43.953125 L 57.578125 -44.265625 C 56.222656 -43.191406 54.445312 -42.289062 52.25 -41.5625 C 50.0625 -40.832031 46.914062 -40.113281 42.8125 -39.40625 C 37.945312 -38.59375 34.445312 -37.195312 32.3125 -35.21875 C 30.175781 -33.25 29.109375 -30.457031 29.109375 -26.84375 C 29.109375 -23 30.242188 -20.078125 32.515625 -18.078125 C 34.785156 -16.078125 37.945312 -15.078125 42 -15.078125 Z M 42 -15.078125 "/></g></g><g transform="translate(279.120862, 430.884654)"><g><path d="M 12.890625 0 L 12.890625 -89.4375 L 34.46875 -89.4375 L 34.46875 -76.296875 L 36.15625 -75.890625 C 41.726562 -86.054688 50.757812 -91.140625 63.25 -91.140625 C 73.570312 -91.140625 81.148438 -88.328125 85.984375 -82.703125 C 90.828125 -77.085938 93.25 -68.898438 93.25 -58.140625 L 93.25 0 L 70.78125 0 L 70.78125 -55.375 C 70.78125 -61.320312 69.59375 -65.609375 67.21875 -68.234375 C 64.84375 -70.859375 61.03125 -72.171875 55.78125 -72.171875 C 49.351562 -72.171875 44.34375 -70.085938 40.75 -65.921875 C 37.15625 -61.753906 35.359375 -55.210938 35.359375 -46.296875 L 35.359375 0 Z M 12.890625 0 "/></g></g><g transform="translate(383.886259, 430.884654)"><g><path d="M 61.703125 -21.328125 L 67.546875 -4.703125 C 65.109375 -2.703125 62.050781 -1.132812 58.375 0 C 54.707031 1.132812 50.546875 1.703125 45.890625 1.703125 C 36.210938 1.703125 28.859375 -0.929688 23.828125 -6.203125 C 18.804688 -11.472656 16.296875 -19.132812 16.296875 -29.1875 L 16.296875 -71.671875 L 2.671875 -71.671875 L 2.671875 -89.515625 L 16.296875 -89.515625 L 16.296875 -106.953125 L 38.765625 -110.59375 L 38.765625 -89.515625 L 64.140625 -89.515625 L 64.140625 -71.671875 L 38.765625 -71.671875 L 38.765625 -30.8125 C 38.765625 -26.375 39.679688 -23.140625 41.515625 -21.109375 C 43.347656 -19.085938 46.023438 -18.078125 49.546875 -18.078125 C 53.546875 -18.078125 57.03125 -19.160156 60 -21.328125 Z M 61.703125 -21.328125 "/></g></g><g transform="translate(453.378476, 430.884654)"><g><path d="M 88.390625 -39.65625 L 30.890625 -39.65625 C 31.535156 -31.863281 33.75 -26.195312 37.53125 -22.65625 C 41.320312 -19.125 46.488281 -17.359375 53.03125 -17.359375 C 58.164062 -17.359375 62.328125 -18.316406 65.515625 -20.234375 C 68.703125 -22.148438 71.269531 -25.054688 73.21875 -28.953125 L 74.921875 -28.953125 L 89.84375 -19.375 C 86.925781 -13.101562 82.519531 -8.019531 76.625 -4.125 C 70.726562 -0.238281 62.863281 1.703125 53.03125 1.703125 C 43.789062 1.703125 35.800781 -0.0507812 29.0625 -3.5625 C 22.332031 -7.082031 17.144531 -12.3125 13.5 -19.25 C 9.851562 -26.195312 8.03125 -34.671875 8.03125 -44.671875 C 8.03125 -54.835938 9.945312 -63.40625 13.78125 -70.375 C 17.625 -77.351562 22.816406 -82.554688 29.359375 -85.984375 C 35.898438 -89.421875 43.25 -91.140625 51.40625 -91.140625 C 64.050781 -91.140625 73.738281 -87.785156 80.46875 -81.078125 C 87.207031 -74.378906 90.578125 -64.539062 90.578125 -51.5625 C 90.578125 -46.863281 90.410156 -43.21875 90.078125 -40.625 Z M 69.078125 -54.171875 C 68.867188 -60.972656 67.289062 -65.925781 64.34375 -69.03125 C 61.394531 -72.144531 57.082031 -73.703125 51.40625 -73.703125 C 40.050781 -73.703125 33.375 -67.191406 31.375 -54.171875 Z M 69.078125 -54.171875 "/></g></g><g transform="translate(550.602709, 430.884654)"><g><path d="M 12.890625 0 L 12.890625 -89.4375 L 34.46875 -89.4375 L 34.46875 -76.296875 L 36.15625 -75.890625 C 41.726562 -86.054688 50.757812 -91.140625 63.25 -91.140625 C 73.570312 -91.140625 81.148438 -88.328125 85.984375 -82.703125 C 90.828125 -77.085938 93.25 -68.898438 93.25 -58.140625 L 93.25 0 L 70.78125 0 L 70.78125 -55.375 C 70.78125 -61.320312 69.59375 -65.609375 67.21875 -68.234375 C 64.84375 -70.859375 61.03125 -72.171875 55.78125 -72.171875 C 49.351562 -72.171875 44.34375 -70.085938 40.75 -65.921875 C 37.15625 -61.753906 35.359375 -55.210938 35.359375 -46.296875 L 35.359375 0 Z M 12.890625 0 "/></g></g><g transform="translate(655.368106, 430.884654)"><g><path d="M 46.375 37.953125 C 31.625 37.953125 20.734375 35.785156 13.703125 31.453125 C 6.671875 27.128906 3.15625 21.101562 3.15625 13.375 C 3.15625 8.675781 4.65625 4.828125 7.65625 1.828125 C 10.65625 -1.171875 14.96875 -3.1875 20.59375 -4.21875 L 20.59375 -5.921875 C 17.570312 -7.753906 15.394531 -9.789062 14.0625 -12.03125 C 12.738281 -14.28125 12.078125 -16.890625 12.078125 -19.859375 C 12.078125 -27.054688 16.753906 -31.894531 26.109375 -34.375 L 26.109375 -36.078125 C 21.296875 -38.835938 17.671875 -42.257812 15.234375 -46.34375 C 12.804688 -50.425781 11.59375 -55.359375 11.59375 -61.140625 C 11.59375 -67.085938 12.957031 -72.316406 15.6875 -76.828125 C 18.414062 -81.335938 22.414062 -84.847656 27.6875 -87.359375 C 32.957031 -89.878906 39.269531 -91.140625 46.625 -91.140625 C 54.082031 -91.140625 60.03125 -89.84375 64.46875 -87.25 C 67.21875 -91.25 68.8125 -95.867188 69.25 -101.109375 L 70.953125 -102.171875 L 87.078125 -98.1875 C 86.597656 -93.914062 85.359375 -90.332031 83.359375 -87.4375 C 81.359375 -84.550781 78.25 -81.972656 74.03125 -79.703125 L 74.03125 -77.921875 C 79.0625 -73.492188 81.578125 -67.304688 81.578125 -59.359375 C 81.578125 -53.835938 80.195312 -48.890625 77.4375 -44.515625 C 74.675781 -40.140625 70.660156 -36.679688 65.390625 -34.140625 C 60.117188 -31.597656 53.863281 -30.328125 46.625 -30.328125 L 43.21875 -30.40625 C 41.050781 -30.507812 39.535156 -30.5625 38.671875 -30.5625 C 36.617188 -30.5625 35.007812 -30.007812 33.84375 -28.90625 C 32.6875 -27.800781 32.109375 -26.382812 32.109375 -24.65625 C 32.109375 -22.757812 32.863281 -21.285156 34.375 -20.234375 C 35.894531 -19.179688 38.113281 -18.597656 41.03125 -18.484375 L 61.0625 -17.75 C 80.84375 -17.15625 90.734375 -8.644531 90.734375 7.78125 C 90.734375 13.5625 89.257812 18.707031 86.3125 23.21875 C 83.363281 27.738281 78.59375 31.320312 72 33.96875 C 65.40625 36.625 56.863281 37.953125 46.375 37.953125 Z M 46.625 -46.0625 C 50.945312 -46.0625 54.320312 -47.328125 56.75 -49.859375 C 59.1875 -52.398438 60.40625 -56.023438 60.40625 -60.734375 C 60.40625 -65.429688 59.1875 -69.035156 56.75 -71.546875 C 54.320312 -74.066406 50.945312 -75.328125 46.625 -75.328125 C 42.25 -75.328125 38.867188 -74.066406 36.484375 -71.546875 C 34.109375 -69.035156 32.921875 -65.429688 32.921875 -60.734375 C 32.921875 -55.972656 34.109375 -52.335938 36.484375 -49.828125 C 38.867188 -47.316406 42.25 -46.0625 46.625 -46.0625 Z M 46.375 21.65625 C 54.050781 21.65625 59.632812 20.570312 63.125 18.40625 C 66.613281 16.238281 68.359375 13.425781 68.359375 9.96875 C 68.359375 7.15625 67.460938 5.085938 65.671875 3.765625 C 63.890625 2.441406 61.054688 1.726562 57.171875 1.625 L 39.484375 0.8125 C 38.890625 0.8125 38.335938 0.785156 37.828125 0.734375 C 37.316406 0.679688 36.816406 0.65625 36.328125 0.65625 C 32.546875 0.65625 29.664062 1.460938 27.6875 3.078125 C 25.71875 4.703125 24.734375 6.945312 24.734375 9.8125 C 24.734375 13.59375 26.539062 16.507812 30.15625 18.5625 C 33.78125 20.625 39.1875 21.65625 46.375 21.65625 Z M 46.375 21.65625 "/></g></g></g></svg>