<svg xmlns="http://www.w3.org/2000/svg" xmlns:xlink="http://www.w3.org/1999/xlink" width="1080" zoomAndPan="magnify" viewBox="0 0 810 599.999999" height="800" preserveAspectRatio="xMidYMid meet" version="1.0"><defs><g/></defs><g fill="#000000" fill-opacity="1"><g transform="translate(96.861199, 223.12501)"><g><path d="M 25.859375 0 L 13.890625 0 L 1.484375 -54.171875 L 12.15625 -54.171875 L 20.34375 -16.078125 L 21.265625 -16.078125 L 30.984375 -54.171875 L 40.125 -54.171875 L 50.03125 -16.078125 L 50.953125 -16.078125 L 59.171875 -54.171875 L 69.484375 -54.171875 L 57.109375 0 L 45.09375 0 L 35.609375 -34.9375 L 34.828125 -34.9375 Z M 25.859375 0 "/></g></g></g><g fill="#000000" fill-opacity="1"><g transform="translate(167.775369, 223.12501)"><g><path d="M 40.390625 -18.125 L 14.125 -18.125 C 14.414062 -14.5625 15.425781 -11.972656 17.15625 -10.359375 C 18.882812 -8.742188 21.242188 -7.9375 24.234375 -7.9375 C 26.578125 -7.9375 28.476562 -8.375 29.9375 -9.25 C 31.394531 -10.125 32.570312 -11.453125 33.46875 -13.234375 L 34.234375 -13.234375 L 41.0625 -8.859375 C 39.726562 -5.992188 37.710938 -3.671875 35.015625 -1.890625 C 32.328125 -0.109375 28.734375 0.78125 24.234375 0.78125 C 20.003906 0.78125 16.351562 -0.0195312 13.28125 -1.625 C 10.207031 -3.238281 7.835938 -5.628906 6.171875 -8.796875 C 4.503906 -11.972656 3.671875 -15.847656 3.671875 -20.421875 C 3.671875 -25.066406 4.546875 -28.976562 6.296875 -32.15625 C 8.054688 -35.34375 10.425781 -37.722656 13.40625 -39.296875 C 16.394531 -40.867188 19.757812 -41.65625 23.5 -41.65625 C 29.28125 -41.65625 33.707031 -40.125 36.78125 -37.0625 C 39.851562 -34 41.390625 -29.5 41.390625 -23.5625 C 41.390625 -21.414062 41.316406 -19.75 41.171875 -18.5625 Z M 31.578125 -24.75 C 31.472656 -27.863281 30.75 -30.128906 29.40625 -31.546875 C 28.0625 -32.972656 26.09375 -33.6875 23.5 -33.6875 C 18.3125 -33.6875 15.257812 -30.707031 14.34375 -24.75 Z M 31.578125 -24.75 "/></g></g></g><g fill="#000000" fill-opacity="1"><g transform="translate(212.19862, 223.12501)"><g><path d="M 28.5625 0.78125 C 23.351562 0.78125 19.476562 -1.171875 16.9375 -5.078125 L 16.15625 -4.921875 L 16.15625 0 L 5.890625 0 L 5.890625 -57.28125 L 16.15625 -57.28125 L 16.15625 -36.0625 L 16.9375 -35.90625 C 18.34375 -37.851562 20.003906 -39.296875 21.921875 -40.234375 C 23.835938 -41.179688 26.128906 -41.65625 28.796875 -41.65625 C 32.109375 -41.65625 35 -40.875 37.46875 -39.3125 C 39.9375 -37.757812 41.859375 -35.394531 43.234375 -32.21875 C 44.617188 -29.039062 45.3125 -25.109375 45.3125 -20.421875 C 45.3125 -15.773438 44.59375 -11.863281 43.15625 -8.6875 C 41.726562 -5.507812 39.753906 -3.132812 37.234375 -1.5625 C 34.722656 0 31.832031 0.78125 28.5625 0.78125 Z M 25.453125 -7.9375 C 28.472656 -7.9375 30.769531 -8.941406 32.34375 -10.953125 C 33.925781 -12.960938 34.71875 -16.117188 34.71875 -20.421875 C 34.71875 -24.742188 33.925781 -27.910156 32.34375 -29.921875 C 30.769531 -31.929688 28.472656 -32.9375 25.453125 -32.9375 C 22.566406 -32.9375 20.273438 -31.898438 18.578125 -29.828125 C 16.890625 -27.753906 16.046875 -24.617188 16.046875 -20.421875 C 16.046875 -16.222656 16.890625 -13.09375 18.578125 -11.03125 C 20.273438 -8.96875 22.566406 -7.9375 25.453125 -7.9375 Z M 25.453125 -7.9375 "/></g></g></g><g fill="#000000" fill-opacity="1"><g transform="translate(261.142, 223.12501)"><g><path d="M 19.125 0.78125 C 16.332031 0.78125 13.773438 0.453125 11.453125 -0.203125 C 9.128906 -0.859375 7.144531 -1.757812 5.5 -2.90625 C 3.851562 -4.050781 2.640625 -5.367188 1.859375 -6.859375 L 7.5625 -13 L 8.34375 -13 C 9.695312 -11.175781 11.300781 -9.804688 13.15625 -8.890625 C 15.007812 -7.972656 17.019531 -7.515625 19.1875 -7.515625 C 21.195312 -7.515625 22.707031 -7.875 23.71875 -8.59375 C 24.726562 -9.3125 25.234375 -10.335938 25.234375 -11.671875 C 25.234375 -12.710938 24.867188 -13.582031 24.140625 -14.28125 C 23.410156 -14.988281 22.234375 -15.539062 20.609375 -15.9375 L 15.1875 -17.234375 C 11.132812 -18.191406 8.175781 -19.664062 6.3125 -21.65625 C 4.445312 -23.644531 3.515625 -26.171875 3.515625 -29.234375 C 3.515625 -31.773438 4.160156 -33.984375 5.453125 -35.859375 C 6.753906 -37.742188 8.582031 -39.179688 10.9375 -40.171875 C 13.300781 -41.160156 16.050781 -41.65625 19.1875 -41.65625 C 22.875 -41.65625 25.925781 -41.125 28.34375 -40.0625 C 30.769531 -39 32.660156 -37.578125 34.015625 -35.796875 L 28.53125 -29.859375 L 27.796875 -29.859375 C 26.660156 -31.148438 25.378906 -32.09375 23.953125 -32.6875 C 22.535156 -33.28125 20.945312 -33.578125 19.1875 -33.578125 C 15.144531 -33.578125 13.125 -32.316406 13.125 -29.796875 C 13.125 -28.734375 13.5 -27.867188 14.25 -27.203125 C 15 -26.535156 16.328125 -25.988281 18.234375 -25.5625 L 23.265625 -24.453125 C 27.421875 -23.566406 30.453125 -22.140625 32.359375 -20.171875 C 34.273438 -18.210938 35.234375 -15.578125 35.234375 -12.265625 C 35.234375 -9.671875 34.59375 -7.382812 33.3125 -5.40625 C 32.03125 -3.4375 30.175781 -1.910156 27.75 -0.828125 C 25.332031 0.242188 22.457031 0.78125 19.125 0.78125 Z M 19.125 0.78125 "/></g></g></g><g fill="#000000" fill-opacity="1"><g transform="translate(298.822105, 223.12501)"><g><path d="M 11 -45.765625 C 9.144531 -45.765625 7.640625 -46.328125 6.484375 -47.453125 C 5.328125 -48.578125 4.75 -50.023438 4.75 -51.796875 C 4.75 -53.554688 5.328125 -55 6.484375 -56.125 C 7.640625 -57.25 9.144531 -57.8125 11 -57.8125 C 12.238281 -57.8125 13.335938 -57.550781 14.296875 -57.03125 C 15.265625 -56.507812 16.015625 -55.796875 16.546875 -54.890625 C 17.078125 -53.992188 17.34375 -52.960938 17.34375 -51.796875 C 17.34375 -50.640625 17.078125 -49.601562 16.546875 -48.6875 C 16.015625 -47.78125 15.265625 -47.066406 14.296875 -46.546875 C 13.335938 -46.023438 12.238281 -45.765625 11 -45.765625 Z M 5.890625 0 L 5.890625 -40.875 L 16.15625 -40.875 L 16.15625 0 Z M 5.890625 0 "/></g></g></g><g fill="#000000" fill-opacity="1"><g transform="translate(320.82994, 223.12501)"><g><path d="M 28.203125 -9.75 L 30.875 -2.15625 C 29.757812 -1.238281 28.359375 -0.519531 26.671875 0 C 24.992188 0.519531 23.09375 0.78125 20.96875 0.78125 C 16.550781 0.78125 13.191406 -0.421875 10.890625 -2.828125 C 8.597656 -5.242188 7.453125 -8.75 7.453125 -13.34375 L 7.453125 -32.75 L 1.21875 -32.75 L 1.21875 -40.90625 L 7.453125 -40.90625 L 7.453125 -48.875 L 17.71875 -50.546875 L 17.71875 -40.90625 L 29.3125 -40.90625 L 29.3125 -32.75 L 17.71875 -32.75 L 17.71875 -14.078125 C 17.71875 -12.054688 18.132812 -10.582031 18.96875 -9.65625 C 19.8125 -8.726562 21.035156 -8.265625 22.640625 -8.265625 C 24.472656 -8.265625 26.066406 -8.757812 27.421875 -9.75 Z M 28.203125 -9.75 "/></g></g></g><g fill="#000000" fill-opacity="1"><g transform="translate(352.582006, 223.12501)"><g><path d="M 40.390625 -18.125 L 14.125 -18.125 C 14.414062 -14.5625 15.425781 -11.972656 17.15625 -10.359375 C 18.882812 -8.742188 21.242188 -7.9375 24.234375 -7.9375 C 26.578125 -7.9375 28.476562 -8.375 29.9375 -9.25 C 31.394531 -10.125 32.570312 -11.453125 33.46875 -13.234375 L 34.234375 -13.234375 L 41.0625 -8.859375 C 39.726562 -5.992188 37.710938 -3.671875 35.015625 -1.890625 C 32.328125 -0.109375 28.734375 0.78125 24.234375 0.78125 C 20.003906 0.78125 16.351562 -0.0195312 13.28125 -1.625 C 10.207031 -3.238281 7.835938 -5.628906 6.171875 -8.796875 C 4.503906 -11.972656 3.671875 -15.847656 3.671875 -20.421875 C 3.671875 -25.066406 4.546875 -28.976562 6.296875 -32.15625 C 8.054688 -35.34375 10.425781 -37.722656 13.40625 -39.296875 C 16.394531 -40.867188 19.757812 -41.65625 23.5 -41.65625 C 29.28125 -41.65625 33.707031 -40.125 36.78125 -37.0625 C 39.851562 -34 41.390625 -29.5 41.390625 -23.5625 C 41.390625 -21.414062 41.316406 -19.75 41.171875 -18.5625 Z M 31.578125 -24.75 C 31.472656 -27.863281 30.75 -30.128906 29.40625 -31.546875 C 28.0625 -32.972656 26.09375 -33.6875 23.5 -33.6875 C 18.3125 -33.6875 15.257812 -30.707031 14.34375 -24.75 Z M 31.578125 -24.75 "/></g></g></g><g fill="#000000" fill-opacity="1"><g transform="translate(397.005245, 223.12501)"><g/></g></g><g fill="#000000" fill-opacity="1"><g transform="translate(414.900509, 223.12501)"><g><path d="M 16.859375 0 L 7.046875 0 L 7.046875 -54.171875 L 21.046875 -54.171875 L 34.765625 -14.34375 L 35.53125 -14.34375 L 49.171875 -54.171875 L 62.84375 -54.171875 L 62.84375 0 L 52.6875 0 L 52.6875 -35.796875 L 51.765625 -35.9375 L 39.25 0 L 30.3125 0 L 17.78125 -35.9375 L 16.859375 -35.796875 Z M 16.859375 0 "/></g></g></g><g fill="#000000" fill-opacity="1"><g transform="translate(484.814339, 223.12501)"><g><path d="M 23.75 0.78125 C 19.75 0.78125 16.234375 -0.0390625 13.203125 -1.6875 C 10.179688 -3.332031 7.835938 -5.738281 6.171875 -8.90625 C 4.503906 -12.082031 3.671875 -15.921875 3.671875 -20.421875 C 3.671875 -24.910156 4.503906 -28.75 6.171875 -31.9375 C 7.835938 -35.125 10.179688 -37.539062 13.203125 -39.1875 C 16.234375 -40.832031 19.75 -41.65625 23.75 -41.65625 C 27.75 -41.65625 31.257812 -40.832031 34.28125 -39.1875 C 37.3125 -37.539062 39.664062 -35.125 41.34375 -31.9375 C 43.03125 -28.75 43.875 -24.910156 43.875 -20.421875 C 43.875 -15.921875 43.03125 -12.082031 41.34375 -8.90625 C 39.664062 -5.738281 37.3125 -3.332031 34.28125 -1.6875 C 31.257812 -0.0390625 27.75 0.78125 23.75 0.78125 Z M 23.75 -7.9375 C 30.101562 -7.9375 33.28125 -12.097656 33.28125 -20.421875 C 33.28125 -24.742188 32.460938 -27.910156 30.828125 -29.921875 C 29.203125 -31.929688 26.84375 -32.9375 23.75 -32.9375 C 17.40625 -32.9375 14.234375 -28.765625 14.234375 -20.421875 C 14.234375 -12.097656 17.40625 -7.9375 23.75 -7.9375 Z M 23.75 -7.9375 "/></g></g></g><g fill="#000000" fill-opacity="1"><g transform="translate(532.312766, 223.12501)"><g><path d="M 16.96875 0.78125 C 13.289062 0.78125 10.476562 -0.210938 8.53125 -2.203125 C 6.59375 -4.191406 5.625 -7.210938 5.625 -11.265625 L 5.625 -57.28125 L 15.890625 -57.28125 L 15.890625 -11.671875 C 15.890625 -9.179688 16.929688 -7.9375 19.015625 -7.9375 C 19.609375 -7.9375 20.238281 -8.03125 20.90625 -8.21875 L 21.421875 -8.078125 L 22.34375 -0.1875 C 21.78125 0.113281 21.023438 0.347656 20.078125 0.515625 C 19.140625 0.691406 18.101562 0.78125 16.96875 0.78125 Z M 16.96875 0.78125 "/></g></g></g><g fill="#000000" fill-opacity="1"><g transform="translate(555.802633, 223.12501)"><g><path d="M 15.9375 0.78125 C 13.3125 0.78125 11.035156 0.300781 9.109375 -0.65625 C 7.179688 -1.625 5.695312 -3.039062 4.65625 -4.90625 C 3.625 -6.769531 3.109375 -9.015625 3.109375 -11.640625 C 3.109375 -14.054688 3.625 -16.085938 4.65625 -17.734375 C 5.695312 -19.378906 7.304688 -20.722656 9.484375 -21.765625 C 11.660156 -22.816406 14.503906 -23.628906 18.015625 -24.203125 C 20.453125 -24.597656 22.304688 -25.03125 23.578125 -25.5 C 24.859375 -25.96875 25.71875 -26.5 26.15625 -27.09375 C 26.601562 -27.6875 26.828125 -28.4375 26.828125 -29.34375 C 26.828125 -30.65625 26.367188 -31.65625 25.453125 -32.34375 C 24.546875 -33.039062 23.03125 -33.390625 20.90625 -33.390625 C 18.625 -33.390625 16.457031 -32.878906 14.40625 -31.859375 C 12.363281 -30.847656 10.585938 -29.515625 9.078125 -27.859375 L 8.34375 -27.859375 L 4.046875 -34.34375 C 6.117188 -36.644531 8.648438 -38.4375 11.640625 -39.71875 C 14.628906 -41.007812 17.890625 -41.65625 21.421875 -41.65625 C 26.828125 -41.65625 30.738281 -40.503906 33.15625 -38.203125 C 35.582031 -35.910156 36.796875 -32.648438 36.796875 -28.421875 L 36.796875 -10.671875 C 36.796875 -8.847656 37.597656 -7.9375 39.203125 -7.9375 C 39.816406 -7.9375 40.421875 -8.046875 41.015625 -8.265625 L 41.546875 -8.109375 L 42.28125 -0.96875 C 41.707031 -0.59375 40.914062 -0.285156 39.90625 -0.046875 C 38.894531 0.179688 37.785156 0.296875 36.578125 0.296875 C 34.128906 0.296875 32.21875 -0.171875 30.84375 -1.109375 C 29.476562 -2.046875 28.5 -3.515625 27.90625 -5.515625 L 27.125 -5.59375 C 25.125 -1.34375 21.394531 0.78125 15.9375 0.78125 Z M 19.1875 -6.890625 C 21.5625 -6.890625 23.457031 -7.6875 24.875 -9.28125 C 26.300781 -10.875 27.015625 -13.09375 27.015625 -15.9375 L 27.015625 -20.078125 L 26.3125 -20.234375 C 25.695312 -19.734375 24.882812 -19.316406 23.875 -18.984375 C 22.875 -18.648438 21.4375 -18.328125 19.5625 -18.015625 C 17.34375 -17.640625 15.742188 -17 14.765625 -16.09375 C 13.785156 -15.195312 13.296875 -13.921875 13.296875 -12.265625 C 13.296875 -10.515625 13.816406 -9.179688 14.859375 -8.265625 C 15.898438 -7.347656 17.34375 -6.890625 19.1875 -6.890625 Z M 19.1875 -6.890625 "/></g></g></g><g fill="#000000" fill-opacity="1"><g transform="translate(598.892063, 223.12501)"><g/></g></g><g fill="#000000" fill-opacity="1"><g transform="translate(616.787326, 223.12501)"><g><path d="M 43.421875 -54.171875 L 43.421875 -45.171875 L 27.796875 -45.171875 L 27.796875 0 L 17.125 0 L 17.125 -45.171875 L 1.484375 -45.171875 L 1.484375 -54.171875 Z M 43.421875 -54.171875 "/></g></g></g><g fill="#000000" fill-opacity="1"><g transform="translate(661.692201, 223.12501)"><g><path d="M 32.203125 0 L 19.265625 0 L 0.96875 -54.171875 L 12.34375 -54.171875 L 25.5 -13.78125 L 26.421875 -13.78125 L 39.390625 -54.171875 L 50.46875 -54.171875 Z M 32.203125 0 "/></g></g></g><g fill="#000000" fill-opacity="1"><g transform="translate(223.951037, 328.875006)"><g><path d="M 5.890625 16.5625 L 5.890625 -40.875 L 16.15625 -40.875 L 16.15625 -35.53125 L 16.9375 -35.390625 C 18.144531 -37.460938 19.757812 -39.023438 21.78125 -40.078125 C 23.8125 -41.128906 26.1875 -41.65625 28.90625 -41.65625 C 32.1875 -41.65625 35.054688 -40.875 37.515625 -39.3125 C 39.972656 -37.757812 41.882812 -35.394531 43.25 -32.21875 C 44.625 -29.039062 45.3125 -25.109375 45.3125 -20.421875 C 45.3125 -15.753906 44.585938 -11.835938 43.140625 -8.671875 C 41.703125 -5.503906 39.695312 -3.132812 37.125 -1.5625 C 34.5625 0 31.597656 0.78125 28.234375 0.78125 C 25.691406 0.78125 23.492188 0.351562 21.640625 -0.5 C 19.785156 -1.351562 18.21875 -2.679688 16.9375 -4.484375 L 16.15625 -4.328125 L 16.15625 16.5625 Z M 25.390625 -7.9375 C 28.453125 -7.9375 30.769531 -8.9375 32.34375 -10.9375 C 33.925781 -12.9375 34.71875 -16.097656 34.71875 -20.421875 C 34.71875 -24.742188 33.925781 -27.910156 32.34375 -29.921875 C 30.769531 -31.929688 28.453125 -32.9375 25.390625 -32.9375 C 22.515625 -32.9375 20.238281 -31.898438 18.5625 -29.828125 C 16.882812 -27.753906 16.046875 -24.617188 16.046875 -20.421875 C 16.046875 -16.242188 16.882812 -13.117188 18.5625 -11.046875 C 20.238281 -8.972656 22.515625 -7.9375 25.390625 -7.9375 Z M 25.390625 -7.9375 "/></g></g></g><g fill="#000000" fill-opacity="1"><g transform="translate(272.894417, 328.875006)"><g><path d="M 11 -45.765625 C 9.144531 -45.765625 7.640625 -46.328125 6.484375 -47.453125 C 5.328125 -48.578125 4.75 -50.023438 4.75 -51.796875 C 4.75 -53.554688 5.328125 -55 6.484375 -56.125 C 7.640625 -57.25 9.144531 -57.8125 11 -57.8125 C 12.238281 -57.8125 13.335938 -57.550781 14.296875 -57.03125 C 15.265625 -56.507812 16.015625 -55.796875 16.546875 -54.890625 C 17.078125 -53.992188 17.34375 -52.960938 17.34375 -51.796875 C 17.34375 -50.640625 17.078125 -49.601562 16.546875 -48.6875 C 16.015625 -47.78125 15.265625 -47.066406 14.296875 -46.546875 C 13.335938 -46.023438 12.238281 -45.765625 11 -45.765625 Z M 5.890625 0 L 5.890625 -40.875 L 16.15625 -40.875 L 16.15625 0 Z M 5.890625 0 "/></g></g></g><g fill="#000000" fill-opacity="1"><g transform="translate(294.902263, 328.875006)"><g><path d="M 5.890625 0 L 5.890625 -40.875 L 15.75 -40.875 L 15.75 -34.875 L 16.53125 -34.6875 C 19.070312 -39.332031 23.195312 -41.65625 28.90625 -41.65625 C 33.625 -41.65625 37.085938 -40.367188 39.296875 -37.796875 C 41.503906 -35.222656 42.609375 -31.476562 42.609375 -26.5625 L 42.609375 0 L 32.34375 0 L 32.34375 -25.3125 C 32.34375 -28.03125 31.800781 -29.988281 30.71875 -31.1875 C 29.632812 -32.382812 27.894531 -32.984375 25.5 -32.984375 C 22.550781 -32.984375 20.253906 -32.03125 18.609375 -30.125 C 16.972656 -28.21875 16.15625 -25.226562 16.15625 -21.15625 L 16.15625 0 Z M 5.890625 0 "/></g></g></g><g fill="#000000" fill-opacity="1"><g transform="translate(342.771181, 328.875006)"><g><path d="M 20.203125 0.78125 C 16.960938 0.78125 14.097656 0 11.609375 -1.5625 C 9.128906 -3.132812 7.1875 -5.507812 5.78125 -8.6875 C 4.375 -11.863281 3.671875 -15.773438 3.671875 -20.421875 C 3.671875 -25.085938 4.390625 -29.003906 5.828125 -32.171875 C 7.273438 -35.347656 9.273438 -37.722656 11.828125 -39.296875 C 14.390625 -40.867188 17.351562 -41.65625 20.71875 -41.65625 C 23.257812 -41.65625 25.460938 -41.210938 27.328125 -40.328125 C 29.191406 -39.453125 30.765625 -38.085938 32.046875 -36.234375 L 32.828125 -36.421875 L 32.828125 -57.28125 L 43.09375 -57.28125 L 43.09375 0 L 32.828125 0 L 32.828125 -5.296875 L 32.046875 -5.453125 C 30.910156 -3.523438 29.351562 -2.003906 27.375 -0.890625 C 25.40625 0.222656 23.015625 0.78125 20.203125 0.78125 Z M 23.53125 -7.9375 C 26.414062 -7.9375 28.695312 -8.96875 30.375 -11.03125 C 32.0625 -13.09375 32.90625 -16.222656 32.90625 -20.421875 C 32.90625 -24.617188 32.0625 -27.753906 30.375 -29.828125 C 28.695312 -31.898438 26.414062 -32.9375 23.53125 -32.9375 C 20.519531 -32.9375 18.21875 -31.929688 16.625 -29.921875 C 15.03125 -27.910156 14.234375 -24.742188 14.234375 -20.421875 C 14.234375 -16.117188 15.03125 -12.960938 16.625 -10.953125 C 18.21875 -8.941406 20.519531 -7.9375 23.53125 -7.9375 Z M 23.53125 -7.9375 "/></g></g></g><g fill="#000000" fill-opacity="1"><g transform="translate(391.751606, 328.875006)"><g><path d="M 15.9375 0.78125 C 13.3125 0.78125 11.035156 0.300781 9.109375 -0.65625 C 7.179688 -1.625 5.695312 -3.039062 4.65625 -4.90625 C 3.625 -6.769531 3.109375 -9.015625 3.109375 -11.640625 C 3.109375 -14.054688 3.625 -16.085938 4.65625 -17.734375 C 5.695312 -19.378906 7.304688 -20.722656 9.484375 -21.765625 C 11.660156 -22.816406 14.503906 -23.628906 18.015625 -24.203125 C 20.453125 -24.597656 22.304688 -25.03125 23.578125 -25.5 C 24.859375 -25.96875 25.71875 -26.5 26.15625 -27.09375 C 26.601562 -27.6875 26.828125 -28.4375 26.828125 -29.34375 C 26.828125 -30.65625 26.367188 -31.65625 25.453125 -32.34375 C 24.546875 -33.039062 23.03125 -33.390625 20.90625 -33.390625 C 18.625 -33.390625 16.457031 -32.878906 14.40625 -31.859375 C 12.363281 -30.847656 10.585938 -29.515625 9.078125 -27.859375 L 8.34375 -27.859375 L 4.046875 -34.34375 C 6.117188 -36.644531 8.648438 -38.4375 11.640625 -39.71875 C 14.628906 -41.007812 17.890625 -41.65625 21.421875 -41.65625 C 26.828125 -41.65625 30.738281 -40.503906 33.15625 -38.203125 C 35.582031 -35.910156 36.796875 -32.648438 36.796875 -28.421875 L 36.796875 -10.671875 C 36.796875 -8.847656 37.597656 -7.9375 39.203125 -7.9375 C 39.816406 -7.9375 40.421875 -8.046875 41.015625 -8.265625 L 41.546875 -8.109375 L 42.28125 -0.96875 C 41.707031 -0.59375 40.914062 -0.285156 39.90625 -0.046875 C 38.894531 0.179688 37.785156 0.296875 36.578125 0.296875 C 34.128906 0.296875 32.21875 -0.171875 30.84375 -1.109375 C 29.476562 -2.046875 28.5 -3.515625 27.90625 -5.515625 L 27.125 -5.59375 C 25.125 -1.34375 21.394531 0.78125 15.9375 0.78125 Z M 19.1875 -6.890625 C 21.5625 -6.890625 23.457031 -7.6875 24.875 -9.28125 C 26.300781 -10.875 27.015625 -13.09375 27.015625 -15.9375 L 27.015625 -20.078125 L 26.3125 -20.234375 C 25.695312 -19.734375 24.882812 -19.316406 23.875 -18.984375 C 22.875 -18.648438 21.4375 -18.328125 19.5625 -18.015625 C 17.34375 -17.640625 15.742188 -17 14.765625 -16.09375 C 13.785156 -15.195312 13.296875 -13.921875 13.296875 -12.265625 C 13.296875 -10.515625 13.816406 -9.179688 14.859375 -8.265625 C 15.898438 -7.347656 17.34375 -6.890625 19.1875 -6.890625 Z M 19.1875 -6.890625 "/></g></g></g><g fill="#000000" fill-opacity="1"><g transform="translate(434.841059, 328.875006)"><g><path d="M 5.890625 0 L 5.890625 -57.28125 L 16.15625 -57.28125 L 16.15625 -35.53125 L 16.9375 -35.390625 C 18.289062 -37.390625 19.957031 -38.929688 21.9375 -40.015625 C 23.914062 -41.109375 26.300781 -41.65625 29.09375 -41.65625 C 38.101562 -41.65625 42.609375 -36.539062 42.609375 -26.3125 L 42.609375 0 L 32.34375 0 L 32.34375 -25.015625 C 32.34375 -27.804688 31.785156 -29.832031 30.671875 -31.09375 C 29.566406 -32.351562 27.84375 -32.984375 25.5 -32.984375 C 22.632812 -32.984375 20.359375 -32.023438 18.671875 -30.109375 C 16.992188 -28.191406 16.15625 -25.207031 16.15625 -21.15625 L 16.15625 0 Z M 5.890625 0 "/></g></g></g><g fill="#000000" fill-opacity="1"><g transform="translate(482.709976, 328.875006)"><g/></g></g><g fill="#000000" fill-opacity="1"><g transform="translate(500.605262, 328.875006)"><g><path d="M 5.890625 0 L 5.890625 -57.28125 L 16.15625 -57.28125 L 16.15625 -25.5 L 17.15625 -25.5 L 28.984375 -40.875 L 39.390625 -40.875 L 39.390625 -40.015625 L 25.5 -22.078125 L 40.953125 -0.921875 L 40.953125 0 L 30.125 0 L 17.15625 -17.234375 L 16.15625 -17.234375 L 16.15625 0 Z M 5.890625 0 "/></g></g></g><g fill="#000000" fill-opacity="1"><g transform="translate(541.619878, 328.875006)"><g><path d="M 40.390625 -18.125 L 14.125 -18.125 C 14.414062 -14.5625 15.425781 -11.972656 17.15625 -10.359375 C 18.882812 -8.742188 21.242188 -7.9375 24.234375 -7.9375 C 26.578125 -7.9375 28.476562 -8.375 29.9375 -9.25 C 31.394531 -10.125 32.570312 -11.453125 33.46875 -13.234375 L 34.234375 -13.234375 L 41.0625 -8.859375 C 39.726562 -5.992188 37.710938 -3.671875 35.015625 -1.890625 C 32.328125 -0.109375 28.734375 0.78125 24.234375 0.78125 C 20.003906 0.78125 16.351562 -0.0195312 13.28125 -1.625 C 10.207031 -3.238281 7.835938 -5.628906 6.171875 -8.796875 C 4.503906 -11.972656 3.671875 -15.847656 3.671875 -20.421875 C 3.671875 -25.066406 4.546875 -28.976562 6.296875 -32.15625 C 8.054688 -35.34375 10.425781 -37.722656 13.40625 -39.296875 C 16.394531 -40.867188 19.757812 -41.65625 23.5 -41.65625 C 29.28125 -41.65625 33.707031 -40.125 36.78125 -37.0625 C 39.851562 -34 41.390625 -29.5 41.390625 -23.5625 C 41.390625 -21.414062 41.316406 -19.75 41.171875 -18.5625 Z M 31.578125 -24.75 C 31.472656 -27.863281 30.75 -30.128906 29.40625 -31.546875 C 28.0625 -32.972656 26.09375 -33.6875 23.5 -33.6875 C 18.3125 -33.6875 15.257812 -30.707031 14.34375 -24.75 Z M 31.578125 -24.75 "/></g></g></g><g fill="#000000" fill-opacity="1"><g transform="translate(58.540888, 434.625001)"><g><path d="M 5.890625 0 L 5.890625 -40.875 L 15.75 -40.875 L 15.75 -34.875 L 16.53125 -34.6875 C 19.070312 -39.332031 23.195312 -41.65625 28.90625 -41.65625 C 33.625 -41.65625 37.085938 -40.367188 39.296875 -37.796875 C 41.503906 -35.222656 42.609375 -31.476562 42.609375 -26.5625 L 42.609375 0 L 32.34375 0 L 32.34375 -25.3125 C 32.34375 -28.03125 31.800781 -29.988281 30.71875 -31.1875 C 29.632812 -32.382812 27.894531 -32.984375 25.5 -32.984375 C 22.550781 -32.984375 20.253906 -32.03125 18.609375 -30.125 C 16.972656 -28.21875 16.15625 -25.226562 16.15625 -21.15625 L 16.15625 0 Z M 5.890625 0 "/></g></g></g><g fill="#000000" fill-opacity="1"><g transform="translate(106.409806, 434.625001)"><g><path d="M 40.390625 -18.125 L 14.125 -18.125 C 14.414062 -14.5625 15.425781 -11.972656 17.15625 -10.359375 C 18.882812 -8.742188 21.242188 -7.9375 24.234375 -7.9375 C 26.578125 -7.9375 28.476562 -8.375 29.9375 -9.25 C 31.394531 -10.125 32.570312 -11.453125 33.46875 -13.234375 L 34.234375 -13.234375 L 41.0625 -8.859375 C 39.726562 -5.992188 37.710938 -3.671875 35.015625 -1.890625 C 32.328125 -0.109375 28.734375 0.78125 24.234375 0.78125 C 20.003906 0.78125 16.351562 -0.0195312 13.28125 -1.625 C 10.207031 -3.238281 7.835938 -5.628906 6.171875 -8.796875 C 4.503906 -11.972656 3.671875 -15.847656 3.671875 -20.421875 C 3.671875 -25.066406 4.546875 -28.976562 6.296875 -32.15625 C 8.054688 -35.34375 10.425781 -37.722656 13.40625 -39.296875 C 16.394531 -40.867188 19.757812 -41.65625 23.5 -41.65625 C 29.28125 -41.65625 33.707031 -40.125 36.78125 -37.0625 C 39.851562 -34 41.390625 -29.5 41.390625 -23.5625 C 41.390625 -21.414062 41.316406 -19.75 41.171875 -18.5625 Z M 31.578125 -24.75 C 31.472656 -27.863281 30.75 -30.128906 29.40625 -31.546875 C 28.0625 -32.972656 26.09375 -33.6875 23.5 -33.6875 C 18.3125 -33.6875 15.257812 -30.707031 14.34375 -24.75 Z M 31.578125 -24.75 "/></g></g></g><g fill="#000000" fill-opacity="1"><g transform="translate(150.833056, 434.625001)"><g><path d="M 5.890625 0 L 5.890625 -40.875 L 15.75 -40.875 L 15.75 -35.390625 L 16.53125 -35.234375 C 17.863281 -37.429688 19.425781 -39.050781 21.21875 -40.09375 C 23.007812 -41.132812 25.300781 -41.65625 28.09375 -41.65625 C 31.175781 -41.65625 33.65625 -41.039062 35.53125 -39.8125 C 37.414062 -38.59375 38.789062 -36.8125 39.65625 -34.46875 L 40.421875 -34.46875 C 41.679688 -36.90625 43.304688 -38.710938 45.296875 -39.890625 C 47.285156 -41.066406 49.765625 -41.65625 52.734375 -41.65625 C 61.203125 -41.65625 65.4375 -36.9375 65.4375 -27.5 L 65.4375 0 L 55.171875 0 L 55.171875 -26.203125 C 55.171875 -28.597656 54.703125 -30.328125 53.765625 -31.390625 C 52.828125 -32.453125 51.320312 -32.984375 49.25 -32.984375 C 43.613281 -32.984375 40.796875 -29.210938 40.796875 -21.671875 L 40.796875 0 L 30.53125 0 L 30.53125 -26.203125 C 30.53125 -28.597656 30.054688 -30.328125 29.109375 -31.390625 C 28.160156 -32.453125 26.644531 -32.984375 24.5625 -32.984375 C 21.925781 -32.984375 19.863281 -32.097656 18.375 -30.328125 C 16.894531 -28.566406 16.15625 -25.757812 16.15625 -21.90625 L 16.15625 0 Z M 5.890625 0 "/></g></g></g><g fill="#000000" fill-opacity="1"><g transform="translate(221.524925, 434.625001)"><g><path d="M 23.75 0.78125 C 19.75 0.78125 16.234375 -0.0390625 13.203125 -1.6875 C 10.179688 -3.332031 7.835938 -5.738281 6.171875 -8.90625 C 4.503906 -12.082031 3.671875 -15.921875 3.671875 -20.421875 C 3.671875 -24.910156 4.503906 -28.75 6.171875 -31.9375 C 7.835938 -35.125 10.179688 -37.539062 13.203125 -39.1875 C 16.234375 -40.832031 19.75 -41.65625 23.75 -41.65625 C 27.75 -41.65625 31.257812 -40.832031 34.28125 -39.1875 C 37.3125 -37.539062 39.664062 -35.125 41.34375 -31.9375 C 43.03125 -28.75 43.875 -24.910156 43.875 -20.421875 C 43.875 -15.921875 43.03125 -12.082031 41.34375 -8.90625 C 39.664062 -5.738281 37.3125 -3.332031 34.28125 -1.6875 C 31.257812 -0.0390625 27.75 0.78125 23.75 0.78125 Z M 23.75 -7.9375 C 30.101562 -7.9375 33.28125 -12.097656 33.28125 -20.421875 C 33.28125 -24.742188 32.460938 -27.910156 30.828125 -29.921875 C 29.203125 -31.929688 26.84375 -32.9375 23.75 -32.9375 C 17.40625 -32.9375 14.234375 -28.765625 14.234375 -20.421875 C 14.234375 -12.097656 17.40625 -7.9375 23.75 -7.9375 Z M 23.75 -7.9375 "/></g></g></g><g fill="#000000" fill-opacity="1"><g transform="translate(269.02334, 434.625001)"><g><path d="M 19.125 0.78125 C 16.332031 0.78125 13.773438 0.453125 11.453125 -0.203125 C 9.128906 -0.859375 7.144531 -1.757812 5.5 -2.90625 C 3.851562 -4.050781 2.640625 -5.367188 1.859375 -6.859375 L 7.5625 -13 L 8.34375 -13 C 9.695312 -11.175781 11.300781 -9.804688 13.15625 -8.890625 C 15.007812 -7.972656 17.019531 -7.515625 19.1875 -7.515625 C 21.195312 -7.515625 22.707031 -7.875 23.71875 -8.59375 C 24.726562 -9.3125 25.234375 -10.335938 25.234375 -11.671875 C 25.234375 -12.710938 24.867188 -13.582031 24.140625 -14.28125 C 23.410156 -14.988281 22.234375 -15.539062 20.609375 -15.9375 L 15.1875 -17.234375 C 11.132812 -18.191406 8.175781 -19.664062 6.3125 -21.65625 C 4.445312 -23.644531 3.515625 -26.171875 3.515625 -29.234375 C 3.515625 -31.773438 4.160156 -33.984375 5.453125 -35.859375 C 6.753906 -37.742188 8.582031 -39.179688 10.9375 -40.171875 C 13.300781 -41.160156 16.050781 -41.65625 19.1875 -41.65625 C 22.875 -41.65625 25.925781 -41.125 28.34375 -40.0625 C 30.769531 -39 32.660156 -37.578125 34.015625 -35.796875 L 28.53125 -29.859375 L 27.796875 -29.859375 C 26.660156 -31.148438 25.378906 -32.09375 23.953125 -32.6875 C 22.535156 -33.28125 20.945312 -33.578125 19.1875 -33.578125 C 15.144531 -33.578125 13.125 -32.316406 13.125 -29.796875 C 13.125 -28.734375 13.5 -27.867188 14.25 -27.203125 C 15 -26.535156 16.328125 -25.988281 18.234375 -25.5625 L 23.265625 -24.453125 C 27.421875 -23.566406 30.453125 -22.140625 32.359375 -20.171875 C 34.273438 -18.210938 35.234375 -15.578125 35.234375 -12.265625 C 35.234375 -9.671875 34.59375 -7.382812 33.3125 -5.40625 C 32.03125 -3.4375 30.175781 -1.910156 27.75 -0.828125 C 25.332031 0.242188 22.457031 0.78125 19.125 0.78125 Z M 19.125 0.78125 "/></g></g></g><g fill="#000000" fill-opacity="1"><g transform="translate(306.703445, 434.625001)"><g><path d="M 40.390625 -18.125 L 14.125 -18.125 C 14.414062 -14.5625 15.425781 -11.972656 17.15625 -10.359375 C 18.882812 -8.742188 21.242188 -7.9375 24.234375 -7.9375 C 26.578125 -7.9375 28.476562 -8.375 29.9375 -9.25 C 31.394531 -10.125 32.570312 -11.453125 33.46875 -13.234375 L 34.234375 -13.234375 L 41.0625 -8.859375 C 39.726562 -5.992188 37.710938 -3.671875 35.015625 -1.890625 C 32.328125 -0.109375 28.734375 0.78125 24.234375 0.78125 C 20.003906 0.78125 16.351562 -0.0195312 13.28125 -1.625 C 10.207031 -3.238281 7.835938 -5.628906 6.171875 -8.796875 C 4.503906 -11.972656 3.671875 -15.847656 3.671875 -20.421875 C 3.671875 -25.066406 4.546875 -28.976562 6.296875 -32.15625 C 8.054688 -35.34375 10.425781 -37.722656 13.40625 -39.296875 C 16.394531 -40.867188 19.757812 -41.65625 23.5 -41.65625 C 29.28125 -41.65625 33.707031 -40.125 36.78125 -37.0625 C 39.851562 -34 41.390625 -29.5 41.390625 -23.5625 C 41.390625 -21.414062 41.316406 -19.75 41.171875 -18.5625 Z M 31.578125 -24.75 C 31.472656 -27.863281 30.75 -30.128906 29.40625 -31.546875 C 28.0625 -32.972656 26.09375 -33.6875 23.5 -33.6875 C 18.3125 -33.6875 15.257812 -30.707031 14.34375 -24.75 Z M 31.578125 -24.75 "/></g></g></g><g fill="#000000" fill-opacity="1"><g transform="translate(351.126707, 434.625001)"><g><path d="M 23.828125 0.78125 C 19.867188 0.78125 16.367188 -0.0390625 13.328125 -1.6875 C 10.296875 -3.332031 7.925781 -5.742188 6.21875 -8.921875 C 4.519531 -12.109375 3.671875 -15.941406 3.671875 -20.421875 C 3.671875 -24.910156 4.519531 -28.75 6.21875 -31.9375 C 7.925781 -35.125 10.285156 -37.539062 13.296875 -39.1875 C 16.316406 -40.832031 19.765625 -41.65625 23.640625 -41.65625 C 32.265625 -41.65625 37.785156 -38.53125 40.203125 -32.28125 L 33.171875 -27.234375 L 32.390625 -27.234375 C 31.546875 -29.160156 30.453125 -30.59375 29.109375 -31.53125 C 27.765625 -32.46875 25.941406 -32.9375 23.640625 -32.9375 C 20.671875 -32.9375 18.359375 -31.910156 16.703125 -29.859375 C 15.054688 -27.816406 14.234375 -24.671875 14.234375 -20.421875 C 14.234375 -16.222656 15.070312 -13.09375 16.75 -11.03125 C 18.425781 -8.96875 20.785156 -7.9375 23.828125 -7.9375 C 26.046875 -7.9375 27.925781 -8.535156 29.46875 -9.734375 C 31.019531 -10.929688 32.128906 -12.648438 32.796875 -14.890625 L 33.578125 -14.96875 L 40.875 -10.96875 C 39.832031 -7.507812 37.910156 -4.6875 35.109375 -2.5 C 32.304688 -0.3125 28.546875 0.78125 23.828125 0.78125 Z M 23.828125 0.78125 "/></g></g></g><g fill="#000000" fill-opacity="1"><g transform="translate(393.252842, 434.625001)"><g><path d="M 18.71875 0.78125 C 14.125 0.78125 10.734375 -0.472656 8.546875 -2.984375 C 6.359375 -5.492188 5.265625 -9.09375 5.265625 -13.78125 L 5.265625 -40.875 L 15.53125 -40.875 L 15.53125 -15.078125 C 15.53125 -12.585938 16.066406 -10.765625 17.140625 -9.609375 C 18.210938 -8.460938 19.875 -7.890625 22.125 -7.890625 C 24.96875 -7.890625 27.175781 -8.820312 28.75 -10.6875 C 30.332031 -12.550781 31.125 -15.484375 31.125 -19.484375 L 31.125 -40.875 L 41.390625 -40.875 L 41.390625 0 L 31.53125 0 L 31.53125 -6 L 30.75 -6.1875 C 29.445312 -3.84375 27.847656 -2.09375 25.953125 -0.9375 C 24.066406 0.207031 21.65625 0.78125 18.71875 0.78125 Z M 18.71875 0.78125 "/></g></g></g><g fill="#000000" fill-opacity="1"><g transform="translate(440.528956, 434.625001)"><g><path d="M 5.890625 0 L 5.890625 -40.875 L 15.859375 -40.875 L 15.859375 -34.796875 L 16.640625 -34.640625 C 17.628906 -36.921875 18.925781 -38.59375 20.53125 -39.65625 C 22.132812 -40.71875 24.085938 -41.25 26.390625 -41.25 C 28.703125 -41.25 30.46875 -40.851562 31.6875 -40.0625 L 29.9375 -31.203125 L 29.15625 -31.046875 C 28.488281 -31.316406 27.847656 -31.515625 27.234375 -31.640625 C 26.617188 -31.765625 25.863281 -31.828125 24.96875 -31.828125 C 22.101562 -31.828125 19.914062 -30.820312 18.40625 -28.8125 C 16.90625 -26.800781 16.15625 -23.570312 16.15625 -19.125 L 16.15625 0 Z M 5.890625 0 "/></g></g></g><g fill="#000000" fill-opacity="1"><g transform="translate(472.577401, 434.625001)"><g><path d="M 11 -45.765625 C 9.144531 -45.765625 7.640625 -46.328125 6.484375 -47.453125 C 5.328125 -48.578125 4.75 -50.023438 4.75 -51.796875 C 4.75 -53.554688 5.328125 -55 6.484375 -56.125 C 7.640625 -57.25 9.144531 -57.8125 11 -57.8125 C 12.238281 -57.8125 13.335938 -57.550781 14.296875 -57.03125 C 15.265625 -56.507812 16.015625 -55.796875 16.546875 -54.890625 C 17.078125 -53.992188 17.34375 -52.960938 17.34375 -51.796875 C 17.34375 -50.640625 17.078125 -49.601562 16.546875 -48.6875 C 16.015625 -47.78125 15.265625 -47.066406 14.296875 -46.546875 C 13.335938 -46.023438 12.238281 -45.765625 11 -45.765625 Z M 5.890625 0 L 5.890625 -40.875 L 16.15625 -40.875 L 16.15625 0 Z M 5.890625 0 "/></g></g></g><g fill="#000000" fill-opacity="1"><g transform="translate(494.585258, 434.625001)"><g><path d="M 28.203125 -9.75 L 30.875 -2.15625 C 29.757812 -1.238281 28.359375 -0.519531 26.671875 0 C 24.992188 0.519531 23.09375 0.78125 20.96875 0.78125 C 16.550781 0.78125 13.191406 -0.421875 10.890625 -2.828125 C 8.597656 -5.242188 7.453125 -8.75 7.453125 -13.34375 L 7.453125 -32.75 L 1.21875 -32.75 L 1.21875 -40.90625 L 7.453125 -40.90625 L 7.453125 -48.875 L 17.71875 -50.546875 L 17.71875 -40.90625 L 29.3125 -40.90625 L 29.3125 -32.75 L 17.71875 -32.75 L 17.71875 -14.078125 C 17.71875 -12.054688 18.132812 -10.582031 18.96875 -9.65625 C 19.8125 -8.726562 21.035156 -8.265625 22.640625 -8.265625 C 24.472656 -8.265625 26.066406 -8.757812 27.421875 -9.75 Z M 28.203125 -9.75 "/></g></g></g><g fill="#000000" fill-opacity="1"><g transform="translate(526.337347, 434.625001)"><g><path d="M 9.046875 17.34375 C 7.285156 17.34375 5.695312 17.207031 4.28125 16.9375 C 2.863281 16.664062 1.707031 16.304688 0.8125 15.859375 L 2.453125 7.5625 L 3.109375 7.34375 C 3.734375 7.65625 4.5 7.910156 5.40625 8.109375 C 6.320312 8.304688 7.257812 8.40625 8.21875 8.40625 C 9.875 8.40625 11.25 8.1875 12.34375 7.75 C 13.445312 7.320312 14.378906 6.609375 15.140625 5.609375 C 15.910156 4.609375 16.59375 3.21875 17.1875 1.4375 L 0.890625 -40.875 L 11.640625 -40.875 L 21.78125 -12.453125 L 22.671875 -12.453125 L 32.578125 -40.875 L 43.015625 -40.875 L 26.609375 2.5625 C 25.296875 6.0625 23.851562 8.878906 22.28125 11.015625 C 20.71875 13.160156 18.867188 14.75 16.734375 15.78125 C 14.597656 16.820312 12.035156 17.34375 9.046875 17.34375 Z M 9.046875 17.34375 "/></g></g></g><g fill="#000000" fill-opacity="1"><g transform="translate(570.204838, 434.625001)"><g><path d="M 10.453125 0.328125 C 9.140625 0.328125 7.984375 0.0625 6.984375 -0.46875 C 5.984375 -1 5.21875 -1.734375 4.6875 -2.671875 C 4.15625 -3.609375 3.890625 -4.671875 3.890625 -5.859375 C 3.890625 -7.046875 4.15625 -8.109375 4.6875 -9.046875 C 5.21875 -9.984375 5.984375 -10.722656 6.984375 -11.265625 C 7.984375 -11.804688 9.140625 -12.078125 10.453125 -12.078125 C 11.785156 -12.078125 12.953125 -11.8125 13.953125 -11.28125 C 14.953125 -10.75 15.71875 -10.015625 16.25 -9.078125 C 16.78125 -8.140625 17.046875 -7.078125 17.046875 -5.890625 C 17.046875 -4.085938 16.445312 -2.597656 15.25 -1.421875 C 14.050781 -0.253906 12.453125 0.328125 10.453125 0.328125 Z M 10.453125 0.328125 "/></g></g></g><g fill="#000000" fill-opacity="1"><g transform="translate(591.138233, 434.625001)"><g><path d="M 23.828125 0.78125 C 19.867188 0.78125 16.367188 -0.0390625 13.328125 -1.6875 C 10.296875 -3.332031 7.925781 -5.742188 6.21875 -8.921875 C 4.519531 -12.109375 3.671875 -15.941406 3.671875 -20.421875 C 3.671875 -24.910156 4.519531 -28.75 6.21875 -31.9375 C 7.925781 -35.125 10.285156 -37.539062 13.296875 -39.1875 C 16.316406 -40.832031 19.765625 -41.65625 23.640625 -41.65625 C 32.265625 -41.65625 37.785156 -38.53125 40.203125 -32.28125 L 33.171875 -27.234375 L 32.390625 -27.234375 C 31.546875 -29.160156 30.453125 -30.59375 29.109375 -31.53125 C 27.765625 -32.46875 25.941406 -32.9375 23.640625 -32.9375 C 20.671875 -32.9375 18.359375 -31.910156 16.703125 -29.859375 C 15.054688 -27.816406 14.234375 -24.671875 14.234375 -20.421875 C 14.234375 -16.222656 15.070312 -13.09375 16.75 -11.03125 C 18.425781 -8.96875 20.785156 -7.9375 23.828125 -7.9375 C 26.046875 -7.9375 27.925781 -8.535156 29.46875 -9.734375 C 31.019531 -10.929688 32.128906 -12.648438 32.796875 -14.890625 L 33.578125 -14.96875 L 40.875 -10.96875 C 39.832031 -7.507812 37.910156 -4.6875 35.109375 -2.5 C 32.304688 -0.3125 28.546875 0.78125 23.828125 0.78125 Z M 23.828125 0.78125 "/></g></g></g><g fill="#000000" fill-opacity="1"><g transform="translate(633.264345, 434.625001)"><g><path d="M 23.75 0.78125 C 19.75 0.78125 16.234375 -0.0390625 13.203125 -1.6875 C 10.179688 -3.332031 7.835938 -5.738281 6.171875 -8.90625 C 4.503906 -12.082031 3.671875 -15.921875 3.671875 -20.421875 C 3.671875 -24.910156 4.503906 -28.75 6.171875 -31.9375 C 7.835938 -35.125 10.179688 -37.539062 13.203125 -39.1875 C 16.234375 -40.832031 19.75 -41.65625 23.75 -41.65625 C 27.75 -41.65625 31.257812 -40.832031 34.28125 -39.1875 C 37.3125 -37.539062 39.664062 -35.125 41.34375 -31.9375 C 43.03125 -28.75 43.875 -24.910156 43.875 -20.421875 C 43.875 -15.921875 43.03125 -12.082031 41.34375 -8.90625 C 39.664062 -5.738281 37.3125 -3.332031 34.28125 -1.6875 C 31.257812 -0.0390625 27.75 0.78125 23.75 0.78125 Z M 23.75 -7.9375 C 30.101562 -7.9375 33.28125 -12.097656 33.28125 -20.421875 C 33.28125 -24.742188 32.460938 -27.910156 30.828125 -29.921875 C 29.203125 -31.929688 26.84375 -32.9375 23.75 -32.9375 C 17.40625 -32.9375 14.234375 -28.765625 14.234375 -20.421875 C 14.234375 -12.097656 17.40625 -7.9375 23.75 -7.9375 Z M 23.75 -7.9375 "/></g></g></g><g fill="#000000" fill-opacity="1"><g transform="translate(680.762771, 434.625001)"><g><path d="M 5.890625 0 L 5.890625 -40.875 L 15.75 -40.875 L 15.75 -35.390625 L 16.53125 -35.234375 C 17.863281 -37.429688 19.425781 -39.050781 21.21875 -40.09375 C 23.007812 -41.132812 25.300781 -41.65625 28.09375 -41.65625 C 31.175781 -41.65625 33.65625 -41.039062 35.53125 -39.8125 C 37.414062 -38.59375 38.789062 -36.8125 39.65625 -34.46875 L 40.421875 -34.46875 C 41.679688 -36.90625 43.304688 -38.710938 45.296875 -39.890625 C 47.285156 -41.066406 49.765625 -41.65625 52.734375 -41.65625 C 61.203125 -41.65625 65.4375 -36.9375 65.4375 -27.5 L 65.4375 0 L 55.171875 0 L 55.171875 -26.203125 C 55.171875 -28.597656 54.703125 -30.328125 53.765625 -31.390625 C 52.828125 -32.453125 51.320312 -32.984375 49.25 -32.984375 C 43.613281 -32.984375 40.796875 -29.210938 40.796875 -21.671875 L 40.796875 0 L 30.53125 0 L 30.53125 -26.203125 C 30.53125 -28.597656 30.054688 -30.328125 29.109375 -31.390625 C 28.160156 -32.453125 26.644531 -32.984375 24.5625 -32.984375 C 21.925781 -32.984375 19.863281 -32.097656 18.375 -30.328125 C 16.894531 -28.566406 16.15625 -25.757812 16.15625 -21.90625 L 16.15625 0 Z M 5.890625 0 "/></g></g></g></svg>