<svg xmlns="http://www.w3.org/2000/svg" xmlns:xlink="http://www.w3.org/1999/xlink" width="100" zoomAndPan="magnify" viewBox="0 0 75 74.999997" height="100" preserveAspectRatio="xMidYMid meet" version="1.0"><defs><g/></defs><g fill="#000000" fill-opacity="1"><g transform="translate(20.726563, 32.83333)"><g><path d="M 7.75 -6.234375 L 7.75 -10 L 9.71875 -10 L 9.71875 0 L 7.75 0 L 7.75 -4.546875 L 3.28125 -4.546875 L 3.28125 0 L 1.296875 0 L 1.296875 -10 L 3.28125 -10 L 3.28125 -6.234375 Z M 7.75 -6.234375 "/></g></g><g transform="translate(31.752929, 32.83333)"><g><path d="M 7.453125 -3.34375 L 2.609375 -3.34375 C 2.660156 -2.6875 2.84375 -2.207031 3.15625 -1.90625 C 3.476562 -1.613281 3.914062 -1.46875 4.46875 -1.46875 C 4.90625 -1.46875 5.253906 -1.546875 5.515625 -1.703125 C 5.785156 -1.867188 6.003906 -2.113281 6.171875 -2.4375 L 6.3125 -2.4375 L 7.578125 -1.640625 C 7.328125 -1.109375 6.953125 -0.675781 6.453125 -0.34375 C 5.960938 -0.0195312 5.300781 0.140625 4.46875 0.140625 C 3.6875 0.140625 3.007812 -0.00390625 2.4375 -0.296875 C 1.875 -0.597656 1.4375 -1.039062 1.125 -1.625 C 0.820312 -2.207031 0.671875 -2.921875 0.671875 -3.765625 C 0.671875 -4.617188 0.832031 -5.335938 1.15625 -5.921875 C 1.476562 -6.515625 1.914062 -6.957031 2.46875 -7.25 C 3.019531 -7.539062 3.640625 -7.6875 4.328125 -7.6875 C 5.398438 -7.6875 6.21875 -7.398438 6.78125 -6.828125 C 7.351562 -6.265625 7.640625 -5.4375 7.640625 -4.34375 C 7.640625 -3.945312 7.625 -3.640625 7.59375 -3.421875 Z M 5.828125 -4.5625 C 5.804688 -5.132812 5.671875 -5.550781 5.421875 -5.8125 C 5.171875 -6.082031 4.804688 -6.21875 4.328125 -6.21875 C 3.378906 -6.21875 2.816406 -5.664062 2.640625 -4.5625 Z M 5.828125 -4.5625 "/></g></g><g transform="translate(39.949218, 32.83333)"><g><path d="M 1.09375 0 L 1.09375 -7.546875 L 2.921875 -7.546875 L 2.921875 -6.421875 L 3.0625 -6.390625 C 3.25 -6.804688 3.488281 -7.113281 3.78125 -7.3125 C 4.082031 -7.507812 4.445312 -7.609375 4.875 -7.609375 C 5.300781 -7.609375 5.625 -7.535156 5.84375 -7.390625 L 5.53125 -5.75 L 5.375 -5.734375 C 5.257812 -5.773438 5.144531 -5.804688 5.03125 -5.828125 C 4.914062 -5.859375 4.773438 -5.875 4.609375 -5.875 C 4.078125 -5.875 3.671875 -5.6875 3.390625 -5.3125 C 3.117188 -4.945312 2.984375 -4.351562 2.984375 -3.53125 L 2.984375 0 Z M 1.09375 0 "/></g></g><g transform="translate(45.862303, 32.83333)"><g><path d="M 2.03125 -8.4375 C 1.6875 -8.4375 1.40625 -8.539062 1.1875 -8.75 C 0.976562 -8.957031 0.875 -9.226562 0.875 -9.5625 C 0.875 -9.882812 0.976562 -10.148438 1.1875 -10.359375 C 1.40625 -10.566406 1.6875 -10.671875 2.03125 -10.671875 C 2.257812 -10.671875 2.460938 -10.617188 2.640625 -10.515625 C 2.816406 -10.421875 2.953125 -10.289062 3.046875 -10.125 C 3.148438 -9.957031 3.203125 -9.769531 3.203125 -9.5625 C 3.203125 -9.34375 3.148438 -9.148438 3.046875 -8.984375 C 2.953125 -8.816406 2.816406 -8.679688 2.640625 -8.578125 C 2.460938 -8.484375 2.257812 -8.4375 2.03125 -8.4375 Z M 1.09375 0 L 1.09375 -7.546875 L 2.984375 -7.546875 L 2.984375 0 Z M 1.09375 0 "/></g></g><g transform="translate(49.92285, 32.83333)"><g><path d="M 3.125 0.140625 C 2.445312 0.140625 1.929688 -0.0390625 1.578125 -0.40625 C 1.222656 -0.769531 1.046875 -1.328125 1.046875 -2.078125 L 1.046875 -10.5625 L 2.9375 -10.5625 L 2.9375 -2.15625 C 2.9375 -1.695312 3.125 -1.46875 3.5 -1.46875 C 3.613281 -1.46875 3.734375 -1.484375 3.859375 -1.515625 L 3.953125 -1.484375 L 4.125 -0.03125 C 4.019531 0.0195312 3.878906 0.0625 3.703125 0.09375 C 3.535156 0.125 3.34375 0.140625 3.125 0.140625 Z M 3.125 0.140625 "/></g></g></g><g fill="#000000" fill-opacity="1"><g transform="translate(8.513022, 51.499995)"><g><path d="M 4.859375 0.140625 C 4.023438 0.140625 3.300781 -0.046875 2.6875 -0.421875 C 2.082031 -0.804688 1.613281 -1.378906 1.28125 -2.140625 C 0.945312 -2.910156 0.78125 -3.863281 0.78125 -5 C 0.78125 -6.132812 0.976562 -7.085938 1.375 -7.859375 C 1.769531 -8.628906 2.320312 -9.203125 3.03125 -9.578125 C 3.738281 -9.953125 4.554688 -10.140625 5.484375 -10.140625 C 6.441406 -10.140625 7.253906 -9.960938 7.921875 -9.609375 C 8.597656 -9.253906 9.078125 -8.722656 9.359375 -8.015625 L 7.90625 -7.140625 L 7.734375 -7.15625 C 7.535156 -7.601562 7.25 -7.925781 6.875 -8.125 C 6.5 -8.332031 6.035156 -8.4375 5.484375 -8.4375 C 4.617188 -8.4375 3.957031 -8.160156 3.5 -7.609375 C 3.050781 -7.066406 2.828125 -6.195312 2.828125 -5 C 2.828125 -3.789062 3.039062 -2.910156 3.46875 -2.359375 C 3.894531 -1.816406 4.523438 -1.546875 5.359375 -1.546875 C 6.078125 -1.546875 6.601562 -1.707031 6.9375 -2.03125 C 7.28125 -2.351562 7.453125 -2.835938 7.453125 -3.484375 L 7.453125 -3.90625 L 5.09375 -3.90625 L 5.09375 -5.515625 L 9.421875 -5.515625 L 9.421875 0 L 7.53125 0 L 7.53125 -1.34375 L 7.390625 -1.359375 C 7.179688 -0.878906 6.867188 -0.507812 6.453125 -0.25 C 6.035156 0.0078125 5.503906 0.140625 4.859375 0.140625 Z M 4.859375 0.140625 "/></g></g><g transform="translate(18.937826, 51.499995)"><g><path d="M 2.9375 0.140625 C 2.457031 0.140625 2.039062 0.0507812 1.6875 -0.125 C 1.332031 -0.300781 1.054688 -0.5625 0.859375 -0.90625 C 0.671875 -1.25 0.578125 -1.660156 0.578125 -2.140625 C 0.578125 -2.585938 0.671875 -2.960938 0.859375 -3.265625 C 1.054688 -3.566406 1.351562 -3.816406 1.75 -4.015625 C 2.15625 -4.210938 2.679688 -4.363281 3.328125 -4.46875 C 3.773438 -4.539062 4.113281 -4.617188 4.34375 -4.703125 C 4.582031 -4.785156 4.742188 -4.878906 4.828125 -4.984375 C 4.910156 -5.097656 4.953125 -5.242188 4.953125 -5.421875 C 4.953125 -5.660156 4.863281 -5.84375 4.6875 -5.96875 C 4.519531 -6.09375 4.242188 -6.15625 3.859375 -6.15625 C 3.441406 -6.15625 3.039062 -6.0625 2.65625 -5.875 C 2.28125 -5.6875 1.953125 -5.441406 1.671875 -5.140625 L 1.53125 -5.140625 L 0.75 -6.34375 C 1.125 -6.757812 1.585938 -7.085938 2.140625 -7.328125 C 2.691406 -7.566406 3.296875 -7.6875 3.953125 -7.6875 C 4.953125 -7.6875 5.671875 -7.472656 6.109375 -7.046875 C 6.554688 -6.617188 6.78125 -6.019531 6.78125 -5.25 L 6.78125 -1.96875 C 6.78125 -1.632812 6.929688 -1.46875 7.234375 -1.46875 C 7.347656 -1.46875 7.457031 -1.488281 7.5625 -1.53125 L 7.65625 -1.5 L 7.796875 -0.171875 C 7.691406 -0.109375 7.546875 -0.0507812 7.359375 0 C 7.171875 0.0390625 6.96875 0.0625 6.75 0.0625 C 6.300781 0.0625 5.945312 -0.0234375 5.6875 -0.203125 C 5.4375 -0.378906 5.253906 -0.648438 5.140625 -1.015625 L 5 -1.03125 C 4.632812 -0.25 3.945312 0.140625 2.9375 0.140625 Z M 3.546875 -1.265625 C 3.984375 -1.265625 4.332031 -1.410156 4.59375 -1.703125 C 4.851562 -2.003906 4.984375 -2.414062 4.984375 -2.9375 L 4.984375 -3.703125 L 4.859375 -3.734375 C 4.742188 -3.640625 4.59375 -3.5625 4.40625 -3.5 C 4.21875 -3.4375 3.953125 -3.378906 3.609375 -3.328125 C 3.203125 -3.253906 2.90625 -3.132812 2.71875 -2.96875 C 2.539062 -2.800781 2.453125 -2.566406 2.453125 -2.265625 C 2.453125 -1.941406 2.546875 -1.691406 2.734375 -1.515625 C 2.929688 -1.347656 3.203125 -1.265625 3.546875 -1.265625 Z M 3.546875 -1.265625 "/></g></g><g transform="translate(26.888021, 51.499995)"><g><path d="M 1.09375 0 L 1.09375 -7.546875 L 2.90625 -7.546875 L 2.90625 -6.4375 L 3.046875 -6.40625 C 3.515625 -7.257812 4.273438 -7.6875 5.328125 -7.6875 C 6.203125 -7.6875 6.84375 -7.445312 7.25 -6.96875 C 7.65625 -6.5 7.859375 -5.8125 7.859375 -4.90625 L 7.859375 0 L 5.96875 0 L 5.96875 -4.671875 C 5.96875 -5.171875 5.863281 -5.53125 5.65625 -5.75 C 5.457031 -5.96875 5.140625 -6.078125 4.703125 -6.078125 C 4.160156 -6.078125 3.738281 -5.898438 3.4375 -5.546875 C 3.132812 -5.203125 2.984375 -4.65625 2.984375 -3.90625 L 2.984375 0 Z M 1.09375 0 "/></g></g><g transform="translate(35.720051, 51.499995)"><g><path d="M 5.203125 -1.796875 L 5.6875 -0.390625 C 5.488281 -0.222656 5.234375 -0.09375 4.921875 0 C 4.609375 0.09375 4.257812 0.140625 3.875 0.140625 C 3.050781 0.140625 2.425781 -0.078125 2 -0.515625 C 1.582031 -0.960938 1.375 -1.613281 1.375 -2.46875 L 1.375 -6.046875 L 0.21875 -6.046875 L 0.21875 -7.546875 L 1.375 -7.546875 L 1.375 -9.015625 L 3.265625 -9.328125 L 3.265625 -7.546875 L 5.40625 -7.546875 L 5.40625 -6.046875 L 3.265625 -6.046875 L 3.265625 -2.59375 C 3.265625 -2.21875 3.34375 -1.945312 3.5 -1.78125 C 3.65625 -1.613281 3.878906 -1.53125 4.171875 -1.53125 C 4.515625 -1.53125 4.8125 -1.617188 5.0625 -1.796875 Z M 5.203125 -1.796875 "/></g></g><g transform="translate(41.578449, 51.499995)"><g><path d="M 7.453125 -3.34375 L 2.609375 -3.34375 C 2.660156 -2.6875 2.84375 -2.207031 3.15625 -1.90625 C 3.476562 -1.613281 3.914062 -1.46875 4.46875 -1.46875 C 4.90625 -1.46875 5.253906 -1.546875 5.515625 -1.703125 C 5.785156 -1.867188 6.003906 -2.113281 6.171875 -2.4375 L 6.3125 -2.4375 L 7.578125 -1.640625 C 7.328125 -1.109375 6.953125 -0.675781 6.453125 -0.34375 C 5.960938 -0.0195312 5.300781 0.140625 4.46875 0.140625 C 3.6875 0.140625 3.007812 -0.00390625 2.4375 -0.296875 C 1.875 -0.597656 1.4375 -1.039062 1.125 -1.625 C 0.820312 -2.207031 0.671875 -2.921875 0.671875 -3.765625 C 0.671875 -4.617188 0.832031 -5.335938 1.15625 -5.921875 C 1.476562 -6.515625 1.914062 -6.957031 2.46875 -7.25 C 3.019531 -7.539062 3.640625 -7.6875 4.328125 -7.6875 C 5.398438 -7.6875 6.21875 -7.398438 6.78125 -6.828125 C 7.351562 -6.265625 7.640625 -5.4375 7.640625 -4.34375 C 7.640625 -3.945312 7.625 -3.640625 7.59375 -3.421875 Z M 5.828125 -4.5625 C 5.804688 -5.132812 5.671875 -5.550781 5.421875 -5.8125 C 5.171875 -6.082031 4.804688 -6.21875 4.328125 -6.21875 C 3.378906 -6.21875 2.816406 -5.664062 2.640625 -4.5625 Z M 5.828125 -4.5625 "/></g></g><g transform="translate(49.774738, 51.499995)"><g><path d="M 1.09375 0 L 1.09375 -7.546875 L 2.90625 -7.546875 L 2.90625 -6.4375 L 3.046875 -6.40625 C 3.515625 -7.257812 4.273438 -7.6875 5.328125 -7.6875 C 6.203125 -7.6875 6.84375 -7.445312 7.25 -6.96875 C 7.65625 -6.5 7.859375 -5.8125 7.859375 -4.90625 L 7.859375 0 L 5.96875 0 L 5.96875 -4.671875 C 5.96875 -5.171875 5.863281 -5.53125 5.65625 -5.75 C 5.457031 -5.96875 5.140625 -6.078125 4.703125 -6.078125 C 4.160156 -6.078125 3.738281 -5.898438 3.4375 -5.546875 C 3.132812 -5.203125 2.984375 -4.65625 2.984375 -3.90625 L 2.984375 0 Z M 1.09375 0 "/></g></g><g transform="translate(58.606769, 51.499995)"><g><path d="M 3.90625 3.203125 C 2.664062 3.203125 1.75 3.019531 1.15625 2.65625 C 0.5625 2.289062 0.265625 1.78125 0.265625 1.125 C 0.265625 0.726562 0.390625 0.40625 0.640625 0.15625 C 0.898438 -0.09375 1.265625 -0.265625 1.734375 -0.359375 L 1.734375 -0.5 C 1.484375 -0.65625 1.300781 -0.828125 1.1875 -1.015625 C 1.070312 -1.203125 1.015625 -1.421875 1.015625 -1.671875 C 1.015625 -2.273438 1.410156 -2.6875 2.203125 -2.90625 L 2.203125 -3.046875 C 1.796875 -3.273438 1.488281 -3.5625 1.28125 -3.90625 C 1.082031 -4.25 0.984375 -4.664062 0.984375 -5.15625 C 0.984375 -5.65625 1.097656 -6.09375 1.328125 -6.46875 C 1.554688 -6.851562 1.890625 -7.148438 2.328125 -7.359375 C 2.773438 -7.578125 3.3125 -7.6875 3.9375 -7.6875 C 4.5625 -7.6875 5.0625 -7.578125 5.4375 -7.359375 C 5.664062 -7.691406 5.800781 -8.082031 5.84375 -8.53125 L 5.984375 -8.609375 L 7.34375 -8.28125 C 7.300781 -7.914062 7.195312 -7.609375 7.03125 -7.359375 C 6.863281 -7.117188 6.597656 -6.90625 6.234375 -6.71875 L 6.234375 -6.5625 C 6.660156 -6.195312 6.875 -5.675781 6.875 -5 C 6.875 -4.539062 6.757812 -4.125 6.53125 -3.75 C 6.300781 -3.382812 5.960938 -3.09375 5.515625 -2.875 C 5.066406 -2.664062 4.539062 -2.5625 3.9375 -2.5625 L 3.640625 -2.5625 C 3.460938 -2.570312 3.335938 -2.578125 3.265625 -2.578125 C 3.085938 -2.578125 2.945312 -2.53125 2.84375 -2.4375 C 2.75 -2.34375 2.703125 -2.222656 2.703125 -2.078125 C 2.703125 -1.921875 2.765625 -1.796875 2.890625 -1.703125 C 3.023438 -1.617188 3.210938 -1.570312 3.453125 -1.5625 L 5.140625 -1.5 C 6.816406 -1.445312 7.65625 -0.726562 7.65625 0.65625 C 7.65625 1.144531 7.53125 1.578125 7.28125 1.953125 C 7.03125 2.335938 6.625 2.640625 6.0625 2.859375 C 5.507812 3.085938 4.789062 3.203125 3.90625 3.203125 Z M 3.9375 -3.890625 C 4.300781 -3.890625 4.582031 -3.992188 4.78125 -4.203125 C 4.988281 -4.421875 5.09375 -4.726562 5.09375 -5.125 C 5.09375 -5.519531 4.988281 -5.820312 4.78125 -6.03125 C 4.582031 -6.238281 4.300781 -6.34375 3.9375 -6.34375 C 3.5625 -6.34375 3.273438 -6.238281 3.078125 -6.03125 C 2.878906 -5.820312 2.78125 -5.519531 2.78125 -5.125 C 2.78125 -4.71875 2.878906 -4.410156 3.078125 -4.203125 C 3.273438 -3.992188 3.5625 -3.890625 3.9375 -3.890625 Z M 3.90625 1.828125 C 4.550781 1.828125 5.019531 1.734375 5.3125 1.546875 C 5.613281 1.367188 5.765625 1.132812 5.765625 0.84375 C 5.765625 0.601562 5.6875 0.425781 5.53125 0.3125 C 5.382812 0.207031 5.144531 0.148438 4.8125 0.140625 L 3.328125 0.0625 C 3.273438 0.0625 3.226562 0.0625 3.1875 0.0625 C 3.144531 0.0625 3.101562 0.0625 3.0625 0.0625 C 2.738281 0.0625 2.492188 0.128906 2.328125 0.265625 C 2.160156 0.398438 2.078125 0.585938 2.078125 0.828125 C 2.078125 1.148438 2.226562 1.394531 2.53125 1.5625 C 2.84375 1.738281 3.300781 1.828125 3.90625 1.828125 Z M 3.90625 1.828125 "/></g></g></g></svg>