<svg xmlns="http://www.w3.org/2000/svg" xmlns:xlink="http://www.w3.org/1999/xlink" width="500" zoomAndPan="magnify" viewBox="0 0 375 374.999991" height="500" preserveAspectRatio="xMidYMid meet" version="1.0"><defs><g/></defs><g fill="#070505" fill-opacity="1"><g transform="translate(0.0068721, 189.246789)"><g><path d="M 9.28125 0 L 4.984375 0 L 0.53125 -19.453125 L 4.359375 -19.453125 L 7.3125 -5.78125 L 7.640625 -5.78125 L 11.125 -19.453125 L 14.40625 -19.453125 L 17.96875 -5.78125 L 18.296875 -5.78125 L 21.25 -19.453125 L 24.953125 -19.453125 L 20.5 0 L 16.1875 0 L 12.78125 -12.546875 L 12.5 -12.546875 Z M 9.28125 0 "/></g></g></g><g fill="#070505" fill-opacity="1"><g transform="translate(25.471287, 189.246789)"><g><path d="M 9.28125 0 L 4.984375 0 L 0.53125 -19.453125 L 4.359375 -19.453125 L 7.3125 -5.78125 L 7.640625 -5.78125 L 11.125 -19.453125 L 14.40625 -19.453125 L 17.96875 -5.78125 L 18.296875 -5.78125 L 21.25 -19.453125 L 24.953125 -19.453125 L 20.5 0 L 16.1875 0 L 12.78125 -12.546875 L 12.5 -12.546875 Z M 9.28125 0 "/></g></g></g><g fill="#070505" fill-opacity="1"><g transform="translate(50.935702, 189.246789)"><g><path d="M 9.28125 0 L 4.984375 0 L 0.53125 -19.453125 L 4.359375 -19.453125 L 7.3125 -5.78125 L 7.640625 -5.78125 L 11.125 -19.453125 L 14.40625 -19.453125 L 17.96875 -5.78125 L 18.296875 -5.78125 L 21.25 -19.453125 L 24.953125 -19.453125 L 20.5 0 L 16.1875 0 L 12.78125 -12.546875 L 12.5 -12.546875 Z M 9.28125 0 "/></g></g></g><g fill="#070505" fill-opacity="1"><g transform="translate(76.400114, 189.246789)"><g><path d="M 3.75 0.125 C 3.28125 0.125 2.863281 0.03125 2.5 -0.15625 C 2.144531 -0.351562 1.867188 -0.617188 1.671875 -0.953125 C 1.484375 -1.296875 1.390625 -1.679688 1.390625 -2.109375 C 1.390625 -2.523438 1.484375 -2.898438 1.671875 -3.234375 C 1.867188 -3.578125 2.144531 -3.847656 2.5 -4.046875 C 2.863281 -4.242188 3.28125 -4.34375 3.75 -4.34375 C 4.226562 -4.34375 4.644531 -4.242188 5 -4.046875 C 5.363281 -3.859375 5.640625 -3.59375 5.828125 -3.25 C 6.023438 -2.914062 6.125 -2.535156 6.125 -2.109375 C 6.125 -1.460938 5.90625 -0.925781 5.46875 -0.5 C 5.039062 -0.0820312 4.46875 0.125 3.75 0.125 Z M 3.75 0.125 "/></g></g></g><g fill="#070505" fill-opacity="1"><g transform="translate(83.917041, 189.246789)"><g><path d="M 6.25 0 L 2.53125 0 L 2.53125 -19.453125 L 6.9375 -19.453125 L 14.75 -6.921875 L 15.09375 -6.96875 L 15.09375 -19.453125 L 18.78125 -19.453125 L 18.78125 0 L 14.84375 0 L 6.59375 -13.390625 L 6.25 -13.328125 Z M 6.25 0 "/></g></g></g><g fill="#070505" fill-opacity="1"><g transform="translate(105.243819, 189.246789)"><g><path d="M 6.375 -8.546875 L 6.375 -3.21875 L 15.65625 -3.21875 L 15.65625 0 L 2.53125 0 L 2.53125 -19.453125 L 15.453125 -19.453125 L 15.453125 -16.234375 L 6.375 -16.234375 L 6.375 -11.6875 L 14.296875 -11.6875 L 14.296875 -8.546875 Z M 6.375 -8.546875 "/></g></g></g><g fill="#070505" fill-opacity="1"><g transform="translate(121.967316, 189.246789)"><g><path d="M 6.046875 0 L 2.53125 0 L 2.53125 -19.453125 L 7.5625 -19.453125 L 12.484375 -5.15625 L 12.765625 -5.15625 L 17.65625 -19.453125 L 22.5625 -19.453125 L 22.5625 0 L 18.921875 0 L 18.921875 -12.859375 L 18.59375 -12.90625 L 14.09375 0 L 10.890625 0 L 6.390625 -12.90625 L 6.046875 -12.859375 Z M 6.046875 0 "/></g></g></g><g fill="#070505" fill-opacity="1"><g transform="translate(147.072513, 189.246789)"><g><path d="M 10.609375 0.28125 C 8.828125 0.28125 7.253906 -0.0820312 5.890625 -0.8125 C 4.523438 -1.539062 3.457031 -2.648438 2.6875 -4.140625 C 1.914062 -5.640625 1.53125 -7.5 1.53125 -9.71875 C 1.53125 -11.945312 1.914062 -13.804688 2.6875 -15.296875 C 3.457031 -16.796875 4.523438 -17.910156 5.890625 -18.640625 C 7.253906 -19.367188 8.828125 -19.734375 10.609375 -19.734375 C 12.390625 -19.734375 13.957031 -19.367188 15.3125 -18.640625 C 16.664062 -17.921875 17.726562 -16.8125 18.5 -15.3125 C 19.269531 -13.8125 19.65625 -11.945312 19.65625 -9.71875 C 19.65625 -7.5 19.269531 -5.640625 18.5 -4.140625 C 17.726562 -2.640625 16.664062 -1.523438 15.3125 -0.796875 C 13.957031 -0.078125 12.390625 0.28125 10.609375 0.28125 Z M 10.609375 -3.0625 C 12.253906 -3.0625 13.507812 -3.585938 14.375 -4.640625 C 15.25 -5.703125 15.6875 -7.394531 15.6875 -9.71875 C 15.6875 -12.050781 15.25 -13.75 14.375 -14.8125 C 13.507812 -15.875 12.253906 -16.40625 10.609375 -16.40625 C 8.941406 -16.40625 7.671875 -15.875 6.796875 -14.8125 C 5.929688 -13.75 5.5 -12.050781 5.5 -9.71875 C 5.5 -7.394531 5.929688 -5.703125 6.796875 -4.640625 C 7.671875 -3.585938 8.941406 -3.0625 10.609375 -3.0625 Z M 10.609375 -3.0625 "/></g></g></g><g fill="#070505" fill-opacity="1"><g transform="translate(168.266252, 189.246789)"><g><path d="M 8.625 0.28125 C 7.269531 0.28125 6.066406 0.113281 5.015625 -0.21875 C 3.972656 -0.550781 3.097656 -0.988281 2.390625 -1.53125 C 1.691406 -2.070312 1.15625 -2.664062 0.78125 -3.3125 L 2.90625 -5.890625 L 3.234375 -5.890625 C 3.816406 -5.023438 4.554688 -4.332031 5.453125 -3.8125 C 6.359375 -3.300781 7.414062 -3.046875 8.625 -3.046875 C 9.65625 -3.046875 10.429688 -3.257812 10.953125 -3.6875 C 11.472656 -4.125 11.734375 -4.726562 11.734375 -5.5 C 11.734375 -5.957031 11.648438 -6.34375 11.484375 -6.65625 C 11.316406 -6.96875 11.035156 -7.234375 10.640625 -7.453125 C 10.253906 -7.671875 9.726562 -7.859375 9.0625 -8.015625 L 6.5625 -8.59375 C 4.8125 -8.988281 3.507812 -9.648438 2.65625 -10.578125 C 1.800781 -11.503906 1.375 -12.710938 1.375 -14.203125 C 1.375 -15.296875 1.644531 -16.257812 2.1875 -17.09375 C 2.738281 -17.925781 3.539062 -18.570312 4.59375 -19.03125 C 5.644531 -19.5 6.90625 -19.734375 8.375 -19.734375 C 9.875 -19.734375 11.15625 -19.535156 12.21875 -19.140625 C 13.289062 -18.742188 14.191406 -18.140625 14.921875 -17.328125 L 13.03125 -14.71875 L 12.6875 -14.71875 C 12.144531 -15.289062 11.515625 -15.722656 10.796875 -16.015625 C 10.085938 -16.304688 9.28125 -16.453125 8.375 -16.453125 C 7.3125 -16.453125 6.503906 -16.265625 5.953125 -15.890625 C 5.410156 -15.515625 5.140625 -15 5.140625 -14.34375 C 5.140625 -13.726562 5.332031 -13.238281 5.71875 -12.875 C 6.101562 -12.507812 6.769531 -12.226562 7.71875 -12.03125 L 10.265625 -11.5 C 12.160156 -11.09375 13.53125 -10.410156 14.375 -9.453125 C 15.226562 -8.503906 15.65625 -7.265625 15.65625 -5.734375 C 15.65625 -4.515625 15.394531 -3.453125 14.875 -2.546875 C 14.351562 -1.648438 13.5625 -0.953125 12.5 -0.453125 C 11.445312 0.0351562 10.15625 0.28125 8.625 0.28125 Z M 8.625 0.28125 "/></g></g></g><g fill="#070505" fill-opacity="1"><g transform="translate(184.976443, 189.246789)"><g><path d="M 6.375 -8.546875 L 6.375 -3.21875 L 15.65625 -3.21875 L 15.65625 0 L 2.53125 0 L 2.53125 -19.453125 L 15.453125 -19.453125 L 15.453125 -16.234375 L 6.375 -16.234375 L 6.375 -11.6875 L 14.296875 -11.6875 L 14.296875 -8.546875 Z M 6.375 -8.546875 "/></g></g></g><g fill="#070505" fill-opacity="1"><g transform="translate(201.69994, 189.246789)"><g><path d="M 10.625 0.28125 C 8.832031 0.28125 7.253906 -0.0859375 5.890625 -0.828125 C 4.523438 -1.578125 3.457031 -2.695312 2.6875 -4.1875 C 1.914062 -5.6875 1.53125 -7.53125 1.53125 -9.71875 C 1.53125 -11.914062 1.914062 -13.757812 2.6875 -15.25 C 3.457031 -16.75 4.523438 -17.867188 5.890625 -18.609375 C 7.253906 -19.359375 8.832031 -19.734375 10.625 -19.734375 C 12.5 -19.734375 14.085938 -19.363281 15.390625 -18.625 C 16.703125 -17.894531 17.640625 -16.78125 18.203125 -15.28125 L 15.390625 -13.578125 L 15.0625 -13.578125 C 14.644531 -14.597656 14.078125 -15.328125 13.359375 -15.765625 C 12.648438 -16.203125 11.738281 -16.421875 10.625 -16.421875 C 9.007812 -16.421875 7.75 -15.882812 6.84375 -14.8125 C 5.945312 -13.75 5.5 -12.050781 5.5 -9.71875 C 5.5 -7.40625 5.945312 -5.710938 6.84375 -4.640625 C 7.75 -3.578125 9.007812 -3.046875 10.625 -3.046875 C 13.15625 -3.046875 14.707031 -4.273438 15.28125 -6.734375 L 15.609375 -6.734375 L 18.4375 -5.25 C 17.90625 -3.40625 16.992188 -2.019531 15.703125 -1.09375 C 14.421875 -0.175781 12.726562 0.28125 10.625 0.28125 Z M 10.625 0.28125 "/></g></g></g><g fill="#070505" fill-opacity="1"><g transform="translate(220.778298, 189.246789)"><g><path d="M 10.3125 0.28125 C 7.632812 0.28125 5.644531 -0.351562 4.34375 -1.625 C 3.050781 -2.90625 2.40625 -4.796875 2.40625 -7.296875 L 2.40625 -19.453125 L 6.171875 -19.453125 L 6.171875 -7.3125 C 6.171875 -5.894531 6.507812 -4.832031 7.1875 -4.125 C 7.875 -3.414062 8.914062 -3.0625 10.3125 -3.0625 C 13.070312 -3.0625 14.453125 -4.476562 14.453125 -7.3125 L 14.453125 -19.453125 L 18.21875 -19.453125 L 18.21875 -7.296875 C 18.21875 -4.796875 17.566406 -2.90625 16.265625 -1.625 C 14.972656 -0.351562 12.988281 0.28125 10.3125 0.28125 Z M 10.3125 0.28125 "/></g></g></g><g fill="#070505" fill-opacity="1"><g transform="translate(241.399947, 189.246789)"><g><path d="M 2.53125 0 L 2.53125 -19.453125 L 10.34375 -19.453125 C 12.351562 -19.453125 13.867188 -18.988281 14.890625 -18.0625 C 15.921875 -17.132812 16.4375 -15.851562 16.4375 -14.21875 C 16.4375 -13.039062 16.132812 -12.070312 15.53125 -11.3125 C 14.9375 -10.5625 14.046875 -9.988281 12.859375 -9.59375 L 12.859375 -9.3125 C 13.460938 -9.050781 13.953125 -8.65625 14.328125 -8.125 C 14.710938 -7.601562 15.070312 -6.828125 15.40625 -5.796875 L 17.34375 0 L 13.40625 0 L 11.5 -5.8125 C 11.300781 -6.394531 11.078125 -6.847656 10.828125 -7.171875 C 10.585938 -7.503906 10.28125 -7.742188 9.90625 -7.890625 C 9.53125 -8.035156 9.039062 -8.109375 8.4375 -8.109375 L 6.375 -8.109375 L 6.375 0 Z M 9.875 -11.15625 C 11.738281 -11.15625 12.671875 -12.023438 12.671875 -13.765625 C 12.671875 -15.523438 11.738281 -16.40625 9.875 -16.40625 L 6.375 -16.40625 L 6.375 -11.15625 Z M 9.875 -11.15625 "/></g></g></g><g fill="#070505" fill-opacity="1"><g transform="translate(259.586926, 189.246789)"><g><path d="M 6.375 0 L 2.53125 0 L 2.53125 -19.453125 L 6.375 -19.453125 Z M 6.375 0 "/></g></g></g><g fill="#070505" fill-opacity="1"><g transform="translate(268.500799, 189.246789)"><g><path d="M 15.59375 -19.453125 L 15.59375 -16.21875 L 9.984375 -16.21875 L 9.984375 0 L 6.140625 0 L 6.140625 -16.21875 L 0.53125 -16.21875 L 0.53125 -19.453125 Z M 15.59375 -19.453125 "/></g></g></g><g fill="#070505" fill-opacity="1"><g transform="translate(284.625594, 189.246789)"><g><path d="M 10.65625 0 L 6.8125 0 L 6.8125 -7.640625 L 0.09375 -19.453125 L 4.21875 -19.453125 L 8.65625 -11.796875 L 9 -11.796875 L 13.34375 -19.453125 L 17.375 -19.453125 L 10.65625 -7.640625 Z M 10.65625 0 "/></g></g></g><g fill="#070505" fill-opacity="1"><g transform="translate(302.094131, 189.246789)"><g><path d="M 3.75 0.125 C 3.28125 0.125 2.863281 0.03125 2.5 -0.15625 C 2.144531 -0.351562 1.867188 -0.617188 1.671875 -0.953125 C 1.484375 -1.296875 1.390625 -1.679688 1.390625 -2.109375 C 1.390625 -2.523438 1.484375 -2.898438 1.671875 -3.234375 C 1.867188 -3.578125 2.144531 -3.847656 2.5 -4.046875 C 2.863281 -4.242188 3.28125 -4.34375 3.75 -4.34375 C 4.226562 -4.34375 4.644531 -4.242188 5 -4.046875 C 5.363281 -3.859375 5.640625 -3.59375 5.828125 -3.25 C 6.023438 -2.914062 6.125 -2.535156 6.125 -2.109375 C 6.125 -1.460938 5.90625 -0.925781 5.46875 -0.5 C 5.039062 -0.0820312 4.46875 0.125 3.75 0.125 Z M 3.75 0.125 "/></g></g></g><g fill="#070505" fill-opacity="1"><g transform="translate(309.611064, 189.246789)"><g><path d="M 10.625 0.28125 C 8.832031 0.28125 7.253906 -0.0859375 5.890625 -0.828125 C 4.523438 -1.578125 3.457031 -2.695312 2.6875 -4.1875 C 1.914062 -5.6875 1.53125 -7.53125 1.53125 -9.71875 C 1.53125 -11.914062 1.914062 -13.757812 2.6875 -15.25 C 3.457031 -16.75 4.523438 -17.867188 5.890625 -18.609375 C 7.253906 -19.359375 8.832031 -19.734375 10.625 -19.734375 C 12.5 -19.734375 14.085938 -19.363281 15.390625 -18.625 C 16.703125 -17.894531 17.640625 -16.78125 18.203125 -15.28125 L 15.390625 -13.578125 L 15.0625 -13.578125 C 14.644531 -14.597656 14.078125 -15.328125 13.359375 -15.765625 C 12.648438 -16.203125 11.738281 -16.421875 10.625 -16.421875 C 9.007812 -16.421875 7.75 -15.882812 6.84375 -14.8125 C 5.945312 -13.75 5.5 -12.050781 5.5 -9.71875 C 5.5 -7.40625 5.945312 -5.710938 6.84375 -4.640625 C 7.75 -3.578125 9.007812 -3.046875 10.625 -3.046875 C 13.15625 -3.046875 14.707031 -4.273438 15.28125 -6.734375 L 15.609375 -6.734375 L 18.4375 -5.25 C 17.90625 -3.40625 16.992188 -2.019531 15.703125 -1.09375 C 14.421875 -0.175781 12.726562 0.28125 10.625 0.28125 Z M 10.625 0.28125 "/></g></g></g><g fill="#070505" fill-opacity="1"><g transform="translate(328.689409, 189.246789)"><g><path d="M 10.609375 0.28125 C 8.828125 0.28125 7.253906 -0.0820312 5.890625 -0.8125 C 4.523438 -1.539062 3.457031 -2.648438 2.6875 -4.140625 C 1.914062 -5.640625 1.53125 -7.5 1.53125 -9.71875 C 1.53125 -11.945312 1.914062 -13.804688 2.6875 -15.296875 C 3.457031 -16.796875 4.523438 -17.910156 5.890625 -18.640625 C 7.253906 -19.367188 8.828125 -19.734375 10.609375 -19.734375 C 12.390625 -19.734375 13.957031 -19.367188 15.3125 -18.640625 C 16.664062 -17.921875 17.726562 -16.8125 18.5 -15.3125 C 19.269531 -13.8125 19.65625 -11.945312 19.65625 -9.71875 C 19.65625 -7.5 19.269531 -5.640625 18.5 -4.140625 C 17.726562 -2.640625 16.664062 -1.523438 15.3125 -0.796875 C 13.957031 -0.078125 12.390625 0.28125 10.609375 0.28125 Z M 10.609375 -3.0625 C 12.253906 -3.0625 13.507812 -3.585938 14.375 -4.640625 C 15.25 -5.703125 15.6875 -7.394531 15.6875 -9.71875 C 15.6875 -12.050781 15.25 -13.75 14.375 -14.8125 C 13.507812 -15.875 12.253906 -16.40625 10.609375 -16.40625 C 8.941406 -16.40625 7.671875 -15.875 6.796875 -14.8125 C 5.929688 -13.75 5.5 -12.050781 5.5 -9.71875 C 5.5 -7.394531 5.929688 -5.703125 6.796875 -4.640625 C 7.671875 -3.585938 8.941406 -3.0625 10.609375 -3.0625 Z M 10.609375 -3.0625 "/></g></g></g><g fill="#070505" fill-opacity="1"><g transform="translate(349.883135, 189.246789)"><g><path d="M 6.046875 0 L 2.53125 0 L 2.53125 -19.453125 L 7.5625 -19.453125 L 12.484375 -5.15625 L 12.765625 -5.15625 L 17.65625 -19.453125 L 22.5625 -19.453125 L 22.5625 0 L 18.921875 0 L 18.921875 -12.859375 L 18.59375 -12.90625 L 14.09375 0 L 10.890625 0 L 6.390625 -12.90625 L 6.046875 -12.859375 Z M 6.046875 0 "/></g></g></g></svg>